<svg width="2015" height="1605" viewBox="0 0 2015 1605" fill="none" xmlns="http://www.w3.org/2000/svg">
<path fill-rule="evenodd" clip-rule="evenodd" d="M1217.36 405.706L1212.66 400.973C1201.59 389.818 1183.56 389.754 1172.4 400.832V400.832L1171.69 401.538C1160.54 412.614 1160.47 430.64 1171.55 441.797V441.797L1176.25 446.529C1187.33 457.686 1205.35 457.748 1216.51 446.671V446.671L1217.22 445.966C1222.44 440.781 1225.23 434.076 1225.59 427.264V427.264C1226 419.521 1223.26 411.642 1217.36 405.706" fill="url(#paint0_linear)"/>
<path fill-rule="evenodd" clip-rule="evenodd" d="M1076.35 1520.31L939.148 1382.13C930.614 1373.54 916.729 1373.49 908.136 1382.02V1382.02L907.588 1382.57C898.995 1391.1 898.946 1404.98 907.478 1413.57V1413.57L1044.68 1551.75C1053.22 1560.34 1067.1 1560.39 1075.69 1551.86V1551.86L1076.24 1551.32C1080.26 1547.32 1082.41 1542.16 1082.69 1536.91V1536.91C1083 1530.95 1080.89 1524.88 1076.35 1520.31" fill="url(#paint1_linear)"/>
<path fill-rule="evenodd" clip-rule="evenodd" d="M396.574 1193.91C388.042 1185.32 374.156 1185.27 365.562 1193.8V1193.8L365.015 1194.34C356.423 1202.88 356.372 1216.76 364.905 1225.36V1225.36C373.439 1233.95 387.323 1234 395.916 1225.47V1225.47L396.466 1224.92C400.486 1220.93 402.637 1215.76 402.912 1210.52V1210.52C403.224 1204.55 401.114 1198.48 396.574 1193.91" fill="url(#paint2_linear)"/>
<path fill-rule="evenodd" clip-rule="evenodd" d="M1959.67 1149.72C1960.04 1142.01 1957.28 1134.17 1951.37 1128.26V1128.26L1771.97 948.812C1760.81 937.651 1742.66 937.582 1731.43 948.656V948.656L1730.72 949.36C1719.49 960.434 1719.43 978.459 1730.59 989.621V989.621L1909.99 1169.07C1921.15 1180.23 1939.3 1180.3 1950.53 1169.23V1169.23L1951.24 1168.52C1956.46 1163.37 1959.27 1156.71 1959.65 1149.94V1149.94L1959.67 1149.72Z" fill="url(#paint3_linear)"/>
<path fill-rule="evenodd" clip-rule="evenodd" d="M1621.82 997.089L1574.26 949.5C1585.41 960.661 1603.55 960.73 1614.78 949.656V949.656L1615.5 948.95C1626.72 937.876 1626.78 919.851 1615.63 908.69V908.69L1436.28 729.243C1425.13 718.082 1406.98 718.012 1395.76 729.086V729.086L1395.04 729.792C1383.82 740.864 1383.76 758.889 1394.91 770.051V770.051L1442.47 817.64C1431.32 806.481 1413.18 806.411 1401.95 817.485V817.485L1401.24 818.189C1390.01 829.263 1389.95 847.287 1401.11 858.45V858.45L1580.45 1037.9C1591.61 1049.06 1609.75 1049.13 1620.98 1038.05V1038.05L1621.69 1037.35C1626.94 1032.17 1629.75 1025.46 1630.11 1018.65V1018.65C1630.52 1010.91 1627.76 1003.03 1621.82 997.089" fill="url(#paint4_linear)"/>
<path fill-rule="evenodd" clip-rule="evenodd" d="M1534.96 876.243C1523.54 865.068 1505 864.978 1493.54 876.04V876.04L1492.81 876.745C1481.34 887.806 1481.3 905.832 1492.72 917.007V917.007C1504.14 928.179 1522.68 928.272 1534.14 917.209V917.209L1534.87 916.506C1540.24 911.328 1543.1 904.627 1543.46 897.815V897.815C1543.86 890.072 1541.03 882.188 1534.96 876.243" fill="url(#paint5_linear)"/>
<path fill-rule="evenodd" clip-rule="evenodd" d="M1032.95 863.146L854.821 683.76C843.741 672.602 825.714 672.539 814.559 683.617V683.617L813.85 684.323C802.691 695.401 802.627 713.425 813.705 724.582V724.582L991.831 903.967C1002.91 915.126 1020.94 915.188 1032.09 904.111V904.111L1032.81 903.404C1038.03 898.221 1040.82 891.514 1041.17 884.702V884.702C1041.58 876.96 1038.84 869.082 1032.95 863.146" fill="url(#paint6_linear)"/>
<path fill-rule="evenodd" clip-rule="evenodd" d="M919.055 881.206L740.931 701.822C729.853 690.664 711.826 690.6 700.671 701.677V701.677L699.96 702.385C694.747 707.559 691.957 714.249 691.59 721.047V721.047L691.586 721.122C691.191 728.854 693.93 736.716 699.815 742.642V742.642L877.942 922.027C889.021 933.186 907.046 933.25 918.202 922.171V922.171L918.915 921.466C924.136 916.281 926.927 909.574 927.284 902.764V902.764C927.692 895.02 924.95 887.142 919.055 881.206" fill="url(#paint7_linear)"/>
<path fill-rule="evenodd" clip-rule="evenodd" d="M1683.88 399.147L1505.75 219.76C1494.67 208.605 1476.65 208.541 1465.49 219.618V219.618L1464.78 220.324C1453.62 231.402 1453.56 249.428 1464.64 260.583V260.583L1642.76 439.968C1653.84 451.123 1671.87 451.189 1683.02 440.11V440.11L1683.74 439.407C1688.96 434.222 1691.75 427.515 1692.11 420.705V420.705C1692.51 412.961 1689.77 405.083 1683.88 399.147" fill="url(#paint8_linear)"/>
<path fill-rule="evenodd" clip-rule="evenodd" d="M1153.93 340.829L1107.82 294.4C1118.9 305.555 1136.93 305.619 1148.09 294.542V294.542L1148.8 293.836C1159.95 282.758 1160.02 264.734 1148.94 253.577V253.577L970.813 74.1919C959.735 63.0336 941.71 62.9694 930.551 74.0484V74.0484L929.84 74.753C918.683 85.8321 918.619 103.857 929.699 115.013V115.013L1051.3 237.476L975.802 161.443C964.724 150.288 946.699 150.222 935.542 161.302V161.302L934.832 162.008C923.673 173.085 923.609 191.111 934.688 202.265V202.265L1112.81 381.652C1123.89 392.808 1141.92 392.873 1153.07 381.795V381.795L1153.79 381.089C1159.01 375.904 1161.8 369.198 1162.16 362.387V362.387C1162.56 354.642 1159.82 346.765 1153.93 340.829" fill="url(#paint9_linear)"/>
<path fill-rule="evenodd" clip-rule="evenodd" d="M1514.14 1515.93L1380.73 1381.58C1372.43 1373.22 1358.93 1373.17 1350.57 1381.47V1381.47L1350.04 1382C1341.69 1390.29 1341.64 1403.79 1349.94 1412.15V1412.15L1483.34 1546.5C1491.64 1554.85 1505.14 1554.9 1513.49 1546.61V1546.61L1514.03 1546.08C1517.94 1542.2 1520.03 1537.17 1520.3 1532.07V1532.07C1520.6 1526.27 1518.55 1520.37 1514.14 1515.93" fill="url(#paint10_linear)"/>
<path fill-rule="evenodd" clip-rule="evenodd" d="M1586.91 1525.75L1453.51 1391.4C1445.21 1383.04 1431.71 1382.99 1423.35 1391.29V1391.29L1422.82 1391.82C1414.47 1400.12 1414.42 1413.61 1422.72 1421.97V1421.97L1556.12 1556.32C1564.42 1564.68 1577.92 1564.73 1586.27 1556.43V1556.43L1586.81 1555.9C1590.72 1552.02 1592.81 1546.99 1593.08 1541.89V1541.89C1593.38 1536.09 1591.33 1530.19 1586.91 1525.75" fill="url(#paint11_linear)"/>
<path fill-rule="evenodd" clip-rule="evenodd" d="M816.416 933.957L658.335 774.756C648.503 764.856 632.506 764.8 622.604 774.628V774.628L621.974 775.257C612.07 785.087 612.016 801.083 621.848 810.985V810.985L779.929 970.186C789.761 980.088 805.756 980.144 815.66 970.311V970.311L816.289 969.685C820.923 965.085 823.401 959.131 823.719 953.088V953.088C824.079 946.216 821.647 939.225 816.416 933.957" fill="url(#paint12_linear)"/>
<path fill-rule="evenodd" clip-rule="evenodd" d="M233.046 886.415C236.639 883.491 242.2 883.784 245.467 887.066C248.732 890.35 248.469 895.382 244.878 898.306C241.284 901.231 235.724 900.939 232.457 897.655C229.192 894.372 229.454 889.34 233.046 886.415" fill="#1B417C"/>
<path fill-rule="evenodd" clip-rule="evenodd" d="M25.7917 1200.73C20.3029 1200.44 16.0854 1195.76 16.3731 1190.27C16.6608 1184.78 21.3446 1180.57 26.8333 1180.85C32.3221 1181.14 36.5396 1185.82 36.2518 1191.31C35.9642 1196.8 31.2804 1201.02 25.7917 1200.73" fill="#F2704D"/>
<path fill-rule="evenodd" clip-rule="evenodd" d="M1009.51 1192.93L980.903 1164.12C971.073 1154.22 955.074 1154.17 945.173 1164V1164L944.542 1164.62C934.639 1174.45 934.584 1190.45 944.416 1200.35V1200.35L973.018 1229.16C982.852 1239.06 998.848 1239.12 1008.75 1229.28V1229.28L1009.38 1228.66C1014.01 1224.06 1016.49 1218.11 1016.81 1212.06V1212.06C1017.17 1205.19 1014.74 1198.2 1009.51 1192.93" fill="url(#paint13_linear)"/>
<path fill-rule="evenodd" clip-rule="evenodd" d="M1785.63 258.612L1654.98 127.035C1646.86 118.853 1633.64 118.805 1625.45 126.931V126.931L1624.93 127.45C1616.75 135.574 1616.7 148.794 1624.83 156.979V156.979L1755.48 288.554C1763.6 296.736 1776.82 296.782 1785.01 288.656V288.656L1785.53 288.139C1789.36 284.338 1791.41 279.418 1791.67 274.421V274.421C1791.97 268.743 1789.96 262.965 1785.63 258.612" fill="url(#paint14_linear)"/>
<path fill-rule="evenodd" clip-rule="evenodd" d="M1855.27 268.942L1724.62 137.369C1716.49 129.185 1703.27 129.137 1695.09 137.263V137.263L1694.56 137.78C1686.38 145.906 1686.33 159.126 1694.46 167.311V167.311L1825.11 298.885C1833.24 307.068 1846.46 307.114 1854.64 298.99V298.99L1855.16 298.471C1858.99 294.669 1861.04 289.749 1861.3 284.753V284.753C1861.6 279.075 1859.59 273.296 1855.27 268.942" fill="url(#paint15_linear)"/>
<path fill-rule="evenodd" clip-rule="evenodd" d="M823.211 1302.17C827.575 1301.63 831.547 1304.74 832.083 1309.1C832.618 1313.46 829.515 1317.44 825.151 1317.97C820.788 1318.51 816.816 1315.4 816.28 1311.04C815.744 1306.68 818.847 1302.71 823.211 1302.17" fill="#1B417C"/>
<path fill-rule="evenodd" clip-rule="evenodd" d="M821.014 1344.11C825.378 1343.57 829.349 1346.67 829.885 1351.04C830.421 1355.4 827.318 1359.37 822.954 1359.91C818.59 1360.44 814.618 1357.34 814.082 1352.98C813.547 1348.61 816.65 1344.64 821.014 1344.11" fill="#1B417C"/>
<path fill-rule="evenodd" clip-rule="evenodd" d="M818.878 1384.85C823.242 1384.31 827.214 1387.41 827.75 1391.78C828.285 1396.14 825.182 1400.11 820.818 1400.65C816.454 1401.18 812.483 1398.08 811.947 1393.72C811.411 1389.35 814.514 1385.38 818.878 1384.85" fill="#1B417C"/>
<path fill-rule="evenodd" clip-rule="evenodd" d="M823.211 1302.17C827.575 1301.63 831.547 1304.74 832.083 1309.1C832.618 1313.46 829.515 1317.44 825.151 1317.97C820.788 1318.51 816.816 1315.4 816.28 1311.04C815.744 1306.68 818.847 1302.71 823.211 1302.17" fill="#1B417C"/>
<path fill-rule="evenodd" clip-rule="evenodd" d="M821.014 1344.11C825.378 1343.57 829.349 1346.67 829.885 1351.04C830.421 1355.4 827.318 1359.37 822.954 1359.91C818.59 1360.44 814.618 1357.34 814.082 1352.98C813.547 1348.61 816.65 1344.64 821.014 1344.11" fill="#1B417C"/>
<path fill-rule="evenodd" clip-rule="evenodd" d="M818.878 1384.85C823.242 1384.31 827.214 1387.41 827.75 1391.78C828.285 1396.14 825.182 1400.11 820.818 1400.65C816.454 1401.18 812.483 1398.08 811.947 1393.72C811.411 1389.35 814.514 1385.38 818.878 1384.85" fill="#1B417C"/>
<path fill-rule="evenodd" clip-rule="evenodd" d="M781.472 1342.03C785.836 1341.5 789.808 1344.6 790.344 1348.97C790.879 1353.33 787.776 1357.3 783.412 1357.84C779.048 1358.37 775.076 1355.27 774.541 1350.91C774.005 1346.54 777.108 1342.57 781.472 1342.03" fill="#1B417C"/>
<path fill-rule="evenodd" clip-rule="evenodd" d="M779.337 1382.77C783.701 1382.24 787.673 1385.34 788.208 1389.7C788.744 1394.07 785.641 1398.04 781.277 1398.57C776.913 1399.11 772.941 1396.01 772.406 1391.64C771.87 1387.28 774.973 1383.31 779.337 1382.77" fill="#1B417C"/>
<path fill-rule="evenodd" clip-rule="evenodd" d="M781.472 1342.03C785.836 1341.5 789.808 1344.6 790.344 1348.97C790.879 1353.33 787.776 1357.3 783.412 1357.84C779.048 1358.37 775.076 1355.27 774.541 1350.91C774.005 1346.54 777.108 1342.57 781.472 1342.03" fill="#1B417C"/>
<path fill-rule="evenodd" clip-rule="evenodd" d="M779.337 1382.77C783.701 1382.24 787.673 1385.34 788.208 1389.7C788.744 1394.07 785.641 1398.04 781.277 1398.57C776.913 1399.11 772.941 1396.01 772.406 1391.64C771.87 1387.28 774.973 1383.31 779.337 1382.77" fill="#1B417C"/>
<path fill-rule="evenodd" clip-rule="evenodd" d="M739.534 1339.84C743.898 1339.3 747.869 1342.4 748.405 1346.77C748.941 1351.13 745.838 1355.1 741.474 1355.64C737.11 1356.17 733.138 1353.07 732.602 1348.71C732.067 1344.34 735.17 1340.37 739.534 1339.84" fill="#1B417C"/>
<path fill-rule="evenodd" clip-rule="evenodd" d="M737.399 1380.58C741.763 1380.04 745.735 1383.14 746.27 1387.51C746.806 1391.87 743.703 1395.84 739.339 1396.38C734.975 1396.91 731.003 1393.81 730.468 1389.45C729.932 1385.08 733.035 1381.11 737.399 1380.58" fill="#1B417C"/>
<path fill-rule="evenodd" clip-rule="evenodd" d="M739.534 1339.84C743.898 1339.3 747.869 1342.4 748.405 1346.77C748.941 1351.13 745.838 1355.1 741.474 1355.64C737.11 1356.17 733.138 1353.07 732.602 1348.71C732.067 1344.34 735.17 1340.37 739.534 1339.84" fill="#1B417C"/>
<path fill-rule="evenodd" clip-rule="evenodd" d="M737.399 1380.58C741.763 1380.04 745.735 1383.14 746.27 1387.51C746.806 1391.87 743.703 1395.84 739.339 1396.38C734.975 1396.91 731.003 1393.81 730.468 1389.45C729.932 1385.08 733.035 1381.11 737.399 1380.58" fill="#1B417C"/>
<path fill-rule="evenodd" clip-rule="evenodd" d="M792.541 1307.03C793.077 1311.39 789.974 1315.36 785.61 1315.9C781.247 1316.44 777.276 1313.33 776.74 1308.97C776.204 1304.61 779.307 1300.63 783.669 1300.1C788.033 1299.56 792.005 1302.67 792.541 1307.03" fill="#1B417C"/>
<path fill-rule="evenodd" clip-rule="evenodd" d="M750.603 1304.83C751.139 1309.19 748.036 1313.17 743.672 1313.7C739.309 1314.24 735.338 1311.14 734.802 1306.77C734.266 1302.41 737.369 1298.44 741.731 1297.9C746.095 1297.36 750.067 1300.47 750.603 1304.83" fill="#1B417C"/>
<path fill-rule="evenodd" clip-rule="evenodd" d="M1636.93 1358.3C1633.66 1355.02 1633.93 1349.98 1637.52 1347.06C1641.11 1344.14 1646.67 1344.43 1649.94 1347.71C1653.2 1350.99 1652.94 1356.03 1649.35 1358.95C1645.75 1361.87 1640.19 1361.58 1636.93 1358.3" fill="#1B417C"/>
<path fill-rule="evenodd" clip-rule="evenodd" d="M1606.66 1385.55C1603.4 1382.27 1603.66 1377.23 1607.25 1374.31C1610.84 1371.38 1616.4 1371.68 1619.67 1374.96C1622.94 1378.24 1622.67 1383.28 1619.08 1386.2C1615.49 1389.12 1609.93 1388.83 1606.66 1385.55" fill="#1B417C"/>
<path fill-rule="evenodd" clip-rule="evenodd" d="M1665.99 1330.99C1662.73 1327.7 1662.99 1322.67 1666.58 1319.75C1670.17 1316.82 1675.73 1317.11 1679 1320.4C1682.27 1323.68 1682 1328.71 1678.41 1331.64C1674.82 1334.56 1669.26 1334.27 1665.99 1330.99" fill="#1B417C"/>
<path fill-rule="evenodd" clip-rule="evenodd" d="M1636.93 1358.3C1633.66 1355.02 1633.93 1349.98 1637.52 1347.06C1641.11 1344.14 1646.67 1344.43 1649.94 1347.71C1653.2 1350.99 1652.94 1356.03 1649.35 1358.95C1645.75 1361.87 1640.19 1361.58 1636.93 1358.3" fill="#1B417C"/>
<path fill-rule="evenodd" clip-rule="evenodd" d="M1606.66 1385.55C1603.4 1382.27 1603.66 1377.23 1607.25 1374.31C1610.84 1371.38 1616.4 1371.68 1619.67 1374.96C1622.94 1378.24 1622.67 1383.28 1619.08 1386.2C1615.49 1389.12 1609.93 1388.83 1606.66 1385.55" fill="#1B417C"/>
<path fill-rule="evenodd" clip-rule="evenodd" d="M1609.68 1328.04C1606.41 1324.75 1606.67 1319.72 1610.27 1316.8C1613.86 1313.87 1619.42 1314.16 1622.69 1317.45C1625.95 1320.73 1625.69 1325.76 1622.1 1328.69C1618.5 1331.61 1612.94 1331.32 1609.68 1328.04" fill="#1B417C"/>
<path fill-rule="evenodd" clip-rule="evenodd" d="M1579.41 1355.29C1576.14 1352 1576.41 1346.97 1580 1344.05C1583.59 1341.12 1589.15 1341.41 1592.42 1344.7C1595.69 1347.98 1595.42 1353.01 1591.83 1355.94C1588.24 1358.86 1582.68 1358.57 1579.41 1355.29" fill="#1B417C"/>
<path fill-rule="evenodd" clip-rule="evenodd" d="M1609.68 1328.04C1606.41 1324.75 1606.67 1319.72 1610.27 1316.8C1613.86 1313.87 1619.42 1314.16 1622.69 1317.45C1625.95 1320.73 1625.69 1325.76 1622.1 1328.69C1618.5 1331.61 1612.94 1331.32 1609.68 1328.04" fill="#1B417C"/>
<path fill-rule="evenodd" clip-rule="evenodd" d="M1579.41 1355.29C1576.14 1352 1576.41 1346.97 1580 1344.05C1583.59 1341.12 1589.15 1341.41 1592.42 1344.7C1595.69 1347.98 1595.42 1353.01 1591.83 1355.94C1588.24 1358.86 1582.68 1358.57 1579.41 1355.29" fill="#1B417C"/>
<path fill-rule="evenodd" clip-rule="evenodd" d="M1582.49 1296.57C1579.22 1293.29 1579.49 1288.26 1583.08 1285.33C1586.67 1282.41 1592.23 1282.7 1595.5 1285.98C1598.76 1289.27 1598.5 1294.3 1594.91 1297.22C1591.32 1300.15 1585.76 1299.86 1582.49 1296.57" fill="#1B417C"/>
<path fill-rule="evenodd" clip-rule="evenodd" d="M1550.96 1324.96C1547.7 1321.68 1547.96 1316.64 1551.55 1313.72C1555.14 1310.79 1560.7 1311.09 1563.97 1314.37C1567.24 1317.65 1566.97 1322.69 1563.38 1325.61C1559.79 1328.53 1554.23 1328.24 1550.96 1324.96" fill="#1B417C"/>
<path fill-rule="evenodd" clip-rule="evenodd" d="M1582.49 1296.57C1579.22 1293.29 1579.49 1288.26 1583.08 1285.33C1586.67 1282.41 1592.23 1282.7 1595.5 1285.98C1598.76 1289.27 1598.5 1294.3 1594.91 1297.22C1591.32 1300.15 1585.76 1299.86 1582.49 1296.57" fill="#1B417C"/>
<path fill-rule="evenodd" clip-rule="evenodd" d="M1550.96 1324.96C1547.7 1321.68 1547.96 1316.64 1551.55 1313.72C1555.14 1310.79 1560.7 1311.09 1563.97 1314.37C1567.24 1317.65 1566.97 1322.69 1563.38 1325.61C1559.79 1328.53 1554.23 1328.24 1550.96 1324.96" fill="#1B417C"/>
<path fill-rule="evenodd" clip-rule="evenodd" d="M1640.59 1288.35C1644.19 1285.42 1649.74 1285.71 1653.01 1289C1656.28 1292.28 1656.02 1297.31 1652.42 1300.24C1648.83 1303.16 1643.27 1302.87 1640 1299.59C1636.74 1296.3 1637 1291.27 1640.59 1288.35" fill="#1B417C"/>
<path fill-rule="evenodd" clip-rule="evenodd" d="M1613.28 1259.28C1616.87 1256.36 1622.43 1256.65 1625.7 1259.93C1628.97 1263.22 1628.7 1268.25 1625.11 1271.17C1621.52 1274.1 1615.96 1273.81 1612.69 1270.52C1609.43 1267.24 1609.69 1262.21 1613.28 1259.28" fill="#1B417C"/>
<path fill-rule="evenodd" clip-rule="evenodd" d="M1250.86 131.84C1247.92 128.573 1248.18 123.54 1251.45 120.6C1254.72 117.658 1259.75 117.922 1262.69 121.189C1265.63 124.454 1265.37 129.488 1262.1 132.429C1258.84 135.369 1253.8 135.105 1250.86 131.84" fill="#1B417C"/>
<path fill-rule="evenodd" clip-rule="evenodd" d="M1221.05 158.681C1218.11 155.415 1218.37 150.381 1221.64 147.441C1224.9 144.5 1229.94 144.763 1232.88 148.03C1235.82 151.295 1235.56 156.329 1232.29 159.27C1229.02 162.21 1223.99 161.947 1221.05 158.681" fill="#1B417C"/>
<path fill-rule="evenodd" clip-rule="evenodd" d="M1189.49 187.102C1186.54 183.835 1186.81 178.801 1190.07 175.861C1193.34 172.92 1198.37 173.183 1201.31 176.45C1204.26 179.715 1203.99 184.749 1200.72 187.691C1197.46 190.63 1192.43 190.367 1189.49 187.102" fill="#1B417C"/>
<path fill-rule="evenodd" clip-rule="evenodd" d="M1250.86 131.84C1247.92 128.573 1248.18 123.54 1251.45 120.6C1254.72 117.658 1259.75 117.922 1262.69 121.189C1265.63 124.454 1265.37 129.488 1262.1 132.429C1258.84 135.369 1253.8 135.105 1250.86 131.84" fill="#1B417C"/>
<path fill-rule="evenodd" clip-rule="evenodd" d="M1221.05 158.681C1218.11 155.415 1218.37 150.381 1221.64 147.441C1224.9 144.5 1229.94 144.763 1232.88 148.03C1235.82 151.295 1235.56 156.329 1232.29 159.27C1229.02 162.21 1223.99 161.947 1221.05 158.681" fill="#1B417C"/>
<path fill-rule="evenodd" clip-rule="evenodd" d="M1189.49 187.102C1186.54 183.835 1186.81 178.801 1190.07 175.861C1193.34 172.92 1198.37 173.183 1201.31 176.45C1204.26 179.715 1203.99 184.749 1200.72 187.691C1197.46 190.63 1192.43 190.367 1189.49 187.102" fill="#1B417C"/>
<path fill-rule="evenodd" clip-rule="evenodd" d="M1192.54 128.784C1189.6 125.517 1189.86 120.483 1193.13 117.544C1196.4 114.602 1201.43 114.866 1204.37 118.133C1207.31 121.398 1207.05 126.431 1203.78 129.373C1200.52 132.313 1195.48 132.049 1192.54 128.784" fill="#1B417C"/>
<path fill-rule="evenodd" clip-rule="evenodd" d="M1162.73 155.625C1159.79 152.358 1160.05 147.325 1163.32 144.385C1166.58 141.443 1171.62 141.707 1174.56 144.974C1177.5 148.239 1177.24 153.273 1173.97 156.214C1170.7 159.154 1165.67 158.89 1162.73 155.625" fill="#1B417C"/>
<path fill-rule="evenodd" clip-rule="evenodd" d="M1192.54 128.784C1189.6 125.517 1189.86 120.483 1193.13 117.544C1196.4 114.602 1201.43 114.866 1204.37 118.133C1207.31 121.398 1207.05 126.431 1203.78 129.373C1200.52 132.313 1195.48 132.049 1192.54 128.784" fill="#1B417C"/>
<path fill-rule="evenodd" clip-rule="evenodd" d="M1162.73 155.625C1159.79 152.358 1160.05 147.325 1163.32 144.385C1166.58 141.443 1171.62 141.707 1174.56 144.974C1177.5 148.239 1177.24 153.273 1173.97 156.214C1170.7 159.154 1165.67 158.89 1162.73 155.625" fill="#1B417C"/>
<path fill-rule="evenodd" clip-rule="evenodd" d="M1165.7 98.9736C1162.76 95.7068 1163.02 90.6731 1166.29 87.7333C1169.55 84.7918 1174.59 85.0556 1177.53 88.3224C1180.47 91.5875 1180.2 96.6212 1176.94 99.5627C1173.67 102.503 1168.64 102.24 1165.7 98.9736" fill="#1B417C"/>
<path fill-rule="evenodd" clip-rule="evenodd" d="M1135.89 125.815C1132.95 122.548 1133.21 117.514 1136.48 114.574C1139.74 111.633 1144.78 111.897 1147.72 115.164C1150.66 118.429 1150.39 123.462 1147.13 126.404C1143.86 129.344 1138.83 129.08 1135.89 125.815" fill="#1B417C"/>
<path fill-rule="evenodd" clip-rule="evenodd" d="M1165.7 98.9736C1162.76 95.7068 1163.02 90.6731 1166.29 87.7333C1169.55 84.7918 1174.59 85.0556 1177.53 88.3224C1180.47 91.5875 1180.2 96.6212 1176.94 99.5627C1173.67 102.503 1168.64 102.24 1165.7 98.9736" fill="#1B417C"/>
<path fill-rule="evenodd" clip-rule="evenodd" d="M1135.89 125.815C1132.95 122.548 1133.21 117.514 1136.48 114.574C1139.74 111.633 1144.78 111.897 1147.72 115.164C1150.66 118.429 1150.39 123.462 1147.13 126.404C1143.86 129.344 1138.83 129.08 1135.89 125.815" fill="#1B417C"/>
<path fill-rule="evenodd" clip-rule="evenodd" d="M1224.61 90.7897C1227.87 87.8482 1232.91 88.112 1235.85 91.3788C1238.79 94.644 1238.53 99.6776 1235.26 102.619C1231.99 105.559 1226.96 105.295 1224.02 102.03C1221.08 98.7632 1221.34 93.7296 1224.61 90.7897" fill="#1B417C"/>
<path fill-rule="evenodd" clip-rule="evenodd" d="M1196.1 60.8921C1199.37 57.9506 1204.4 58.2145 1207.34 61.4812C1210.28 64.7481 1210.02 69.7801 1206.75 72.7215C1203.48 75.6614 1198.45 75.3976 1195.51 72.1325C1192.57 68.8657 1192.83 63.832 1196.1 60.8921" fill="#1B417C"/>
<path fill-rule="evenodd" clip-rule="evenodd" d="M1533.49 514.19L1449.24 431.625C1445.93 432.982 1442.73 434.607 1439.68 436.496L1528.82 523.858C1530.62 520.82 1532.18 517.585 1533.49 514.19" fill="#1B417C"/>
<path fill-rule="evenodd" clip-rule="evenodd" d="M1537.89 491.025L1473.46 427.882C1469.02 427.893 1464.63 428.358 1460.35 429.268L1536.75 504.141C1537.59 499.757 1537.97 495.366 1537.89 491.025" fill="#1B417C"/>
<path fill-rule="evenodd" clip-rule="evenodd" d="M1494.9 431.791C1493.42 431.277 1491.94 430.842 1490.45 430.443L1535.56 474.656C1529.95 455.313 1515.38 438.889 1494.9 431.791" fill="#1B417C"/>
<path fill-rule="evenodd" clip-rule="evenodd" d="M1486.26 554.557L1409.86 479.685C1409.02 484.067 1408.64 488.46 1408.72 492.801L1473.14 555.943C1477.59 555.931 1481.98 555.467 1486.26 554.557" fill="#1B417C"/>
<path fill-rule="evenodd" clip-rule="evenodd" d="M1522.44 533.679L1430.97 444.034C1428.42 446.246 1426.03 448.667 1423.84 451.286L1515.31 540.933C1517.86 538.719 1520.25 536.299 1522.44 533.679" fill="#1B417C"/>
<path fill-rule="evenodd" clip-rule="evenodd" d="M1411.1 509.824C1416.71 529.167 1431.28 545.589 1451.76 552.689C1453.24 553.203 1454.72 553.636 1456.21 554.037L1411.1 509.824Z" fill="#1B417C"/>
<path fill-rule="evenodd" clip-rule="evenodd" d="M1506.77 545.734L1417.63 458.372C1415.83 461.41 1414.28 464.644 1412.97 468.039L1497.22 550.605C1500.53 549.248 1503.73 547.622 1506.77 545.734" fill="#1B417C"/>
<path fill-rule="evenodd" clip-rule="evenodd" d="M1849.13 963.468L1763.37 880.824C1760 882.177 1756.75 883.802 1753.66 885.686L1844.39 973.132C1846.22 970.095 1847.8 966.861 1849.13 963.468" fill="#1B417C"/>
<path fill-rule="evenodd" clip-rule="evenodd" d="M1853.61 938.636L1787.79 875.42C1783.26 875.428 1778.78 875.887 1774.41 876.792L1852.46 951.751C1853.31 947.368 1853.7 942.977 1853.61 938.636" fill="#1B417C"/>
<path fill-rule="evenodd" clip-rule="evenodd" d="M1809.12 879.323C1807.59 878.807 1806.05 878.368 1804.51 877.967L1851.28 922.267C1845.44 902.912 1830.33 886.459 1809.12 879.323" fill="#1B417C"/>
<path fill-rule="evenodd" clip-rule="evenodd" d="M1803.65 1002.26L1725.6 927.297C1724.75 931.678 1724.37 936.071 1724.45 940.413L1790.27 1003.63C1794.8 1003.62 1799.29 1003.16 1803.65 1002.26" fill="#1B417C"/>
<path fill-rule="evenodd" clip-rule="evenodd" d="M1838.17 981.29L1745.14 891.564C1742.55 893.774 1740.13 896.193 1737.9 898.81L1830.93 988.538C1833.52 986.326 1835.94 983.909 1838.17 981.29" fill="#1B417C"/>
<path fill-rule="evenodd" clip-rule="evenodd" d="M1726.82 957.436C1732.66 976.79 1747.78 993.241 1768.99 1000.38C1770.52 1000.9 1772.06 1001.33 1773.6 1001.74L1726.82 957.436Z" fill="#1B417C"/>
<path fill-rule="evenodd" clip-rule="evenodd" d="M1824.16 993.432L1733.43 905.987C1731.6 909.024 1730.02 912.256 1728.69 915.65L1814.45 998.296C1817.82 996.942 1821.07 995.319 1824.16 993.432" fill="#1B417C"/>
<path fill-rule="evenodd" clip-rule="evenodd" d="M1503.79 154.02C1496.37 153.63 1490.66 147.297 1491.05 139.872C1491.44 132.447 1497.78 126.743 1505.2 127.132C1512.63 127.521 1518.33 133.856 1517.94 141.281C1517.55 148.706 1511.22 154.409 1503.79 154.02" fill="#1B417C"/>
<path fill-rule="evenodd" clip-rule="evenodd" d="M1502.01 1001.02C1494.13 1000.61 1488.05 994.252 1488.44 986.827C1488.83 979.403 1495.54 973.718 1503.42 974.131C1511.31 974.544 1517.38 980.899 1516.99 988.324C1516.6 995.749 1509.9 1001.43 1502.01 1001.02" fill="#1B417C"/>
<path fill-rule="evenodd" clip-rule="evenodd" d="M1612.32 1526.42C1604.9 1526.03 1599.19 1519.69 1599.58 1512.27C1599.97 1504.84 1606.31 1499.14 1613.73 1499.53C1621.16 1499.92 1626.86 1506.25 1626.47 1513.68C1626.08 1521.1 1619.75 1526.81 1612.32 1526.42" fill="#1B417C"/>
<path fill-rule="evenodd" clip-rule="evenodd" d="M1295.47 1265.06C1292.33 1264.9 1289.65 1267.31 1289.48 1270.45V1270.45C1289.32 1273.59 1291.73 1276.27 1294.87 1276.43V1276.43C1298.01 1276.6 1300.69 1274.18 1300.86 1271.04V1271.04C1301.02 1267.9 1298.61 1265.22 1295.47 1265.06" fill="url(#paint16_linear)"/>
<path fill-rule="evenodd" clip-rule="evenodd" d="M1840.51 126.326C1837.37 126.161 1834.69 128.572 1834.53 131.713V131.713C1834.36 134.854 1836.77 137.533 1839.92 137.698V137.698C1843.06 137.862 1845.74 135.45 1845.9 132.309V132.309C1846.07 129.168 1843.65 126.49 1840.51 126.326" fill="url(#paint17_linear)"/>
<path fill-rule="evenodd" clip-rule="evenodd" d="M1160.92 1520.62C1157.78 1520.45 1155.37 1517.77 1155.53 1514.63C1155.69 1511.49 1158.37 1509.08 1161.52 1509.25C1164.65 1509.41 1167.07 1512.09 1166.9 1515.23C1166.74 1518.37 1164.06 1520.78 1160.92 1520.62" fill="#1B417C"/>
<path fill-rule="evenodd" clip-rule="evenodd" d="M802.667 1501.84C799.526 1501.68 797.115 1499 797.28 1495.86C797.444 1492.72 800.122 1490.31 803.263 1490.47C806.404 1490.63 808.817 1493.31 808.652 1496.45C808.488 1499.59 805.808 1502.01 802.667 1501.84" fill="#1B417C"/>
<path fill-rule="evenodd" clip-rule="evenodd" d="M1702.48 1261.62C1699.34 1261.46 1696.93 1258.78 1697.09 1255.64C1697.26 1252.5 1699.94 1250.09 1703.08 1250.25C1706.22 1250.42 1708.63 1253.09 1708.47 1256.24C1708.3 1259.37 1705.62 1261.79 1702.48 1261.62" fill="#1B417C"/>
<path fill-rule="evenodd" clip-rule="evenodd" d="M1089.64 840.21C1086.5 840.046 1084.09 837.366 1084.25 834.227C1084.42 831.086 1087.1 828.674 1090.24 828.838C1093.38 829.003 1095.79 831.682 1095.63 834.823C1095.46 837.962 1092.78 840.375 1089.64 840.21" fill="#1B417C"/>
<path fill-rule="evenodd" clip-rule="evenodd" d="M1649.34 554.055C1646.2 553.89 1643.52 556.303 1643.36 559.442V559.442C1643.19 562.585 1645.61 565.264 1648.75 565.429V565.429C1651.88 565.593 1654.56 563.181 1654.73 560.038V560.038C1654.89 556.899 1652.48 554.22 1649.34 554.055" fill="url(#paint18_linear)"/>
<path fill-rule="evenodd" clip-rule="evenodd" d="M1802.96 364.66C1799.82 364.495 1797.41 361.817 1797.57 358.677C1797.74 355.536 1800.41 353.123 1803.56 353.288C1806.7 353.452 1809.11 356.132 1808.94 359.273C1808.78 362.413 1806.1 364.824 1802.96 364.66" fill="#1B417C"/>
<path fill-rule="evenodd" clip-rule="evenodd" d="M1504.7 349.028C1501.55 348.864 1499.14 346.186 1499.31 343.045C1499.47 339.904 1502.15 337.492 1505.29 337.656C1508.43 337.821 1510.84 340.5 1510.68 343.641C1510.51 346.782 1507.83 349.193 1504.7 349.028" fill="#1B417C"/>
<path fill-rule="evenodd" clip-rule="evenodd" d="M1236.24 242.778C1233.1 242.614 1230.42 245.026 1230.26 248.167V248.167C1230.09 251.308 1232.51 253.985 1235.65 254.15V254.15C1238.79 254.315 1241.47 251.904 1241.63 248.763V248.763C1241.79 245.622 1239.38 242.943 1236.24 242.778" fill="url(#paint19_linear)"/>
<path fill-rule="evenodd" clip-rule="evenodd" d="M1429.6 1215.43C1424.11 1215.14 1419.9 1210.46 1420.18 1204.97C1420.47 1199.48 1425.15 1195.26 1430.64 1195.55C1436.13 1195.84 1440.35 1200.52 1440.06 1206.01C1439.77 1211.5 1435.09 1215.72 1429.6 1215.43" fill="#F2704D"/>
<path fill-rule="evenodd" clip-rule="evenodd" d="M1069.14 1150.08C1063.65 1149.79 1059.43 1145.11 1059.72 1139.62C1060.01 1134.13 1064.69 1129.91 1070.18 1130.2C1075.67 1130.49 1079.89 1135.17 1079.6 1140.66C1079.31 1146.15 1074.63 1150.37 1069.14 1150.08" fill="#1B417C"/>
<path fill-rule="evenodd" clip-rule="evenodd" d="M1063.58 459.169C1058.09 458.882 1053.87 454.2 1054.16 448.709C1054.44 443.221 1059.13 439.004 1064.62 439.291C1070.11 439.579 1074.32 444.263 1074.04 449.751C1073.75 455.241 1069.07 459.457 1063.58 459.169" fill="#1B417C"/>
<defs>
<linearGradient id="paint0_linear" x1="1179.85" y1="602.567" x2="1379.4" y2="437.722" gradientUnits="userSpaceOnUse">
<stop stop-color="#F59A40"/>
<stop offset="1" stop-color="#F5C43A"/>
</linearGradient>
<linearGradient id="paint1_linear" x1="712.014" y1="1398.46" x2="908.566" y2="1632.67" gradientUnits="userSpaceOnUse">
<stop stop-color="#ED405C"/>
<stop offset="1" stop-color="#F48448"/>
</linearGradient>
<linearGradient id="paint2_linear" x1="334.327" y1="1203.6" x2="374.801" y2="1244.33" gradientUnits="userSpaceOnUse">
<stop stop-color="#ED405C"/>
<stop offset="1" stop-color="#F48448"/>
</linearGradient>
<linearGradient id="paint3_linear" x1="1405.16" y1="969.799" x2="1722.85" y2="1335.17" gradientUnits="userSpaceOnUse">
<stop stop-color="#85C7C2"/>
<stop offset="1" stop-color="#C6E7E3"/>
</linearGradient>
<linearGradient id="paint4_linear" x1="1189.27" y1="926.767" x2="1587.29" y2="1189.15" gradientUnits="userSpaceOnUse">
<stop stop-color="#85C7C2"/>
<stop offset="1" stop-color="#C6E7E3"/>
</linearGradient>
<linearGradient id="paint5_linear" x1="1470.81" y1="904.798" x2="1521.34" y2="954.642" gradientUnits="userSpaceOnUse">
<stop stop-color="#85C7C2"/>
<stop offset="1" stop-color="#C6E7E3"/>
</linearGradient>
<linearGradient id="paint6_linear" x1="867.42" y1="689.025" x2="817.035" y2="846.957" gradientUnits="userSpaceOnUse">
<stop stop-color="#ED405C"/>
<stop offset="1" stop-color="#F48448"/>
</linearGradient>
<linearGradient id="paint7_linear" x1="753.531" y1="707.086" x2="703.146" y2="865.018" gradientUnits="userSpaceOnUse">
<stop stop-color="#ED405C"/>
<stop offset="1" stop-color="#F48448"/>
</linearGradient>
<linearGradient id="paint8_linear" x1="1518.35" y1="225.026" x2="1467.97" y2="382.958" gradientUnits="userSpaceOnUse">
<stop stop-color="#ED405C"/>
<stop offset="1" stop-color="#F48448"/>
</linearGradient>
<linearGradient id="paint9_linear" x1="883.946" y1="279.593" x2="1116.15" y2="435.555" gradientUnits="userSpaceOnUse">
<stop stop-color="#F59A40"/>
<stop offset="1" stop-color="#F5C43A"/>
</linearGradient>
<linearGradient id="paint10_linear" x1="1273.48" y1="1531.61" x2="1486.4" y2="1769.04" gradientUnits="userSpaceOnUse">
<stop stop-color="#F59A40"/>
<stop offset="1" stop-color="#F5C43A"/>
</linearGradient>
<linearGradient id="paint11_linear" x1="1303.79" y1="1500.55" x2="1516.7" y2="1737.98" gradientUnits="userSpaceOnUse">
<stop stop-color="#F59A40"/>
<stop offset="1" stop-color="#F5C43A"/>
</linearGradient>
<linearGradient id="paint12_linear" x1="42.4089" y1="644.553" x2="448.799" y2="1089.74" gradientUnits="userSpaceOnUse">
<stop stop-color="#85A2C7"/>
<stop offset="1" stop-color="#4AC8FF"/>
</linearGradient>
<linearGradient id="paint13_linear" x1="895.36" y1="1443.25" x2="1134.16" y2="1255.88" gradientUnits="userSpaceOnUse">
<stop stop-color="#F59A40"/>
<stop offset="1" stop-color="#F5C43A"/>
</linearGradient>
<linearGradient id="paint14_linear" x1="1560.55" y1="255.762" x2="1740.25" y2="460.155" gradientUnits="userSpaceOnUse">
<stop stop-color="#85C7C2"/>
<stop offset="1" stop-color="#C6E7E3"/>
</linearGradient>
<linearGradient id="paint15_linear" x1="1589.26" y1="225.928" x2="1768.97" y2="430.323" gradientUnits="userSpaceOnUse">
<stop stop-color="#85C7C2"/>
<stop offset="1" stop-color="#C6E7E3"/>
</linearGradient>
<linearGradient id="paint16_linear" x1="1289.78" y1="1264.76" x2="1289.19" y2="1276.13" gradientUnits="userSpaceOnUse">
<stop stop-color="#F59A40"/>
<stop offset="1" stop-color="#F5C43A"/>
</linearGradient>
<linearGradient id="paint17_linear" x1="1834.83" y1="126.028" x2="1834.23" y2="137.4" gradientUnits="userSpaceOnUse">
<stop stop-color="#F59A40"/>
<stop offset="1" stop-color="#F5C43A"/>
</linearGradient>
<linearGradient id="paint18_linear" x1="1643.66" y1="553.758" x2="1643.06" y2="565.13" gradientUnits="userSpaceOnUse">
<stop stop-color="#F59A40"/>
<stop offset="1" stop-color="#F5C43A"/>
</linearGradient>
<linearGradient id="paint19_linear" x1="1230.56" y1="242.481" x2="1229.96" y2="253.853" gradientUnits="userSpaceOnUse">
<stop stop-color="#F59A40"/>
<stop offset="1" stop-color="#F5C43A"/>
</linearGradient>
</defs>
</svg>
