<svg width="282" height="220" viewBox="0 0 282 220" fill="none" xmlns="http://www.w3.org/2000/svg">
<path opacity="0.1" d="M99.0569 215.72C126.185 215.72 148.177 211.56 148.177 206.43C148.177 201.299 126.185 197.139 99.0569 197.139C71.9287 197.139 49.937 201.299 49.937 206.43C49.937 211.56 71.9287 215.72 99.0569 215.72Z" fill="#E33A4C"/>
<path opacity="0.1" d="M163.886 31.0228C145.834 30.399 128.641 24.5787 112.223 18.2127C95.8047 11.8466 79.543 4.79544 61.9229 1.42303C50.5899 -0.746336 37.6279 -1.05545 28.4985 5.0043C19.7094 10.8524 16.8698 20.9195 15.3441 30.2681C14.1949 37.3025 13.5199 44.7073 16.6662 51.2934C18.853 55.8661 22.7302 59.7091 25.4135 64.0896C34.7494 79.3281 28.1498 98.12 18.0358 112.999C13.2939 119.978 7.78503 126.645 4.12266 134.066C0.460284 141.488 -1.23283 150.021 1.97209 157.612C5.14634 165.131 12.7138 170.767 20.9116 174.736C37.561 182.798 57.1727 185.104 76.3102 186.412C118.66 189.303 161.234 188.053 203.696 186.797C219.411 186.334 235.193 185.864 250.651 183.438C259.236 182.09 268.098 179.952 274.332 174.789C282.243 168.236 284.204 157.141 278.901 148.926C270.009 135.141 245.429 131.719 239.206 116.929C235.787 108.786 239.298 99.7185 244.272 92.1689C254.938 75.9696 272.815 61.7587 273.755 43.2453C274.402 30.5299 265.808 17.7949 252.52 11.777C238.593 5.46936 219.277 6.26303 209.006 16.7033C198.421 27.4415 179.827 31.577 163.886 31.0228Z" fill="#E33A4C"/>
<path fill-rule="evenodd" clip-rule="evenodd" d="M140.997 94.9871L149.541 100.738L140.997 102.147V122.309L132.744 123.868L128.73 124.626L119.452 126.38L109.157 125.342L104.677 124.89L103.313 124.751L98.8338 124.292L93.8967 123.793V148.508C93.8967 148.508 94.5159 154.972 93.8967 156.306C93.5174 157.125 92.1813 158.453 91.2106 159.352C91.2159 160.269 91.2868 161.184 91.4226 162.09C92.0892 165.086 89.1381 167.899 89.1381 167.899C88.8686 167.936 88.6057 168.011 88.3571 168.122L87.7044 183.085C87.7044 183.085 86.5608 186.691 87.18 187.721C87.3508 188.007 87.554 188.293 87.7507 188.569C88.1614 189.147 88.544 189.684 88.544 190.102C89.7406 190.534 93.0683 191.801 94.1226 192.932C94.8688 193.736 95.4271 193.677 96.2408 193.592C96.7686 193.536 97.4039 193.469 98.2676 193.619C98.3523 193.634 98.4369 193.652 98.5253 193.671C98.5533 193.677 98.5817 193.683 98.6107 193.689C98.6978 193.709 98.7832 193.728 98.8671 193.747C100.788 194.178 101.855 194.417 102.493 196.045C102.627 196.403 102.734 196.769 102.814 197.142C103.254 199.122 101.245 199.656 99.2236 200.192C98.4503 200.397 97.6752 200.603 97.0347 200.891C94.7196 201.929 89.5035 200.891 89.5035 200.891L87.3028 200.754L83.6069 200.52C83.8963 200.784 84.2555 200.959 84.6418 201.024C84.6241 201.079 84.6042 201.131 84.5844 201.184C84.5665 201.231 84.5488 201.278 84.533 201.325C85.8969 201.804 89.9024 203.316 91.1604 204.667C92.0388 205.615 92.6964 205.546 93.6548 205.445C94.2759 205.38 95.0233 205.301 96.0389 205.477C96.1644 205.499 96.3011 205.527 96.4434 205.558C96.5369 205.579 96.6289 205.6 96.7192 205.62C98.9959 206.135 100.256 206.42 101.009 208.343C101.167 208.763 101.294 209.194 101.389 209.632C101.905 211.963 99.5338 212.593 97.1559 213.225C96.2463 213.467 95.3358 213.709 94.5857 214.046C91.8745 215.266 85.738 214.046 85.738 214.046L83.1467 213.885C79.8023 213.676 74.1651 213.316 72.1763 213.158C69.2726 212.921 69.9867 211.751 69.9867 211.751V206.182C69.9249 206.153 69.866 206.119 69.811 206.079C68.7817 205.235 69.811 188.657 69.811 188.657C69.811 188.657 72.366 163.363 74.3631 162.24C75.5459 161.576 75.361 160.812 75.152 159.95C75.0081 159.356 74.8528 158.715 75.1246 158.027C75.7912 156.339 74.4607 151.75 74.4607 151.75C74.4607 151.75 73.8861 146.314 72.4608 143.693C71.0355 141.073 71.2223 133.86 71.2223 133.86C71.2223 133.86 67.2336 128.603 66.037 126.553C64.8404 124.503 64.0845 119.165 64.3634 115.135C64.5559 112.412 66.0091 108.446 66.9324 106.165C65.8362 106.363 63.8837 106.522 62.7679 105.558C61.3175 104.336 65.1137 99.8438 66.0593 98.7661C65.9247 97.6118 65.8743 96.4494 65.9087 95.2878L64.9826 86.8722C64.9826 86.8722 64.4108 82.0238 63.5545 79.4256C63.3256 78.6863 63.1605 77.9289 63.0608 77.1615C62.7424 74.7872 62.9056 72.3731 63.5406 70.063C63.812 69.0821 63.984 68.0763 64.0538 67.061C64.1961 64.46 72.2628 54.4152 74.2599 53.5018C75.038 53.1489 75.6885 52.5655 76.1232 51.8309C76.2114 51.6222 76.2805 51.406 76.3296 51.1848C76.4446 50.6319 76.6491 50.1015 76.9349 49.6142C77.9139 47.2694 79.6377 48.4195 79.6377 48.4195C79.6712 48.3527 79.7047 48.2858 79.7353 48.219C79.939 47.7985 80.1398 47.3557 80.335 46.9073C80.1685 46.994 79.9899 47.055 79.8051 47.0884C79.3121 47.1293 78.8182 47.0206 78.3881 46.7765C78.114 46.6788 77.8881 46.4793 77.7577 46.2195C77.7355 46.1531 77.7251 46.0834 77.727 46.0134C77.7086 45.7203 77.9062 45.4475 78.1083 45.1684C78.2729 44.941 78.4405 44.7095 78.4969 44.4595C78.5353 44.2399 78.519 44.0141 78.4495 43.8023C78.4507 43.8078 78.4507 43.8135 78.4495 43.819C78.346 43.531 78.2822 43.2302 78.2598 42.9251C78.2558 42.8231 78.27 42.7213 78.3016 42.6243C78.3732 42.4066 78.5298 42.2346 78.6877 42.0613C78.7822 41.9576 78.877 41.8534 78.9543 41.7387C79.2556 41.2904 79.2444 40.7613 79.2054 40.2043V40.221C79.2013 40.1696 79.1966 40.118 79.192 40.0663C79.1778 39.9081 79.1635 39.7491 79.1635 39.5916C79.1339 39.2357 79.1776 38.8775 79.2918 38.539C79.4448 38.1338 79.7494 37.8168 80.0557 37.498C80.28 37.2646 80.5052 37.0302 80.6726 36.7595C80.7687 36.5979 80.8508 36.4283 80.918 36.2527H80.8678L80.9822 33.8382C80.7701 33.8071 80.5558 33.8784 80.4048 34.0304C80.3425 34.1141 80.2962 34.2085 80.2681 34.3089C80.2272 34.4277 80.1912 34.549 80.1553 34.6703C80.1373 34.7309 80.1193 34.7916 80.1007 34.8519L80.1314 34.8185C80.0865 34.9582 80.0286 35.0934 79.9585 35.2223L79.9222 35.2724V35.2947C79.7609 35.6186 79.4252 35.8188 79.0631 35.8071C79.2012 35.4485 79.2949 35.0744 79.3421 34.6932C79.0427 34.819 78.7175 34.8715 78.3937 34.8463L78.4411 34.7711C78.5026 34.6896 78.5586 34.604 78.6085 34.5149C78.7874 34.2014 78.911 33.8594 78.9739 33.5041C78.9955 33.2131 79.0742 32.9293 79.2054 32.6686C79.2472 32.5849 79.305 32.5102 79.3755 32.4486V32.5015C79.613 32.3734 79.8675 32.2796 80.1314 32.223C80.4774 32.0937 80.792 31.7885 81.1123 31.4777C81.3576 31.2397 81.6062 30.9985 81.8748 30.8306L81.9194 30.3628C84.0253 26.3582 91.5174 26.7787 91.5174 26.7787C103.035 28.536 104.15 36.222 104.15 37.7035C104.15 39.1851 108.613 41.0453 108.613 41.0453C108.613 41.0453 110.025 41.4101 110.242 41.9281C110.242 41.9281 110.856 42.7273 110.298 43.457C110.197 43.5857 110.077 43.6976 109.941 43.7884C109.407 44.1212 108.808 44.3358 108.184 44.4177C108.052 44.4416 107.919 44.4574 107.785 44.4651H107.715C107.608 44.4706 107.501 44.4706 107.394 44.4651H107.313C107.194 44.46 107.074 44.448 106.956 44.4289H106.942C106.817 44.4094 106.694 44.3843 106.571 44.3537L106.51 44.337C106.41 44.3091 106.315 44.2785 106.217 44.2451L106.131 44.2144C106.04 44.1773 105.947 44.1383 105.852 44.0975L105.796 44.0752C105.684 44.0223 105.573 43.9666 105.464 43.9081L105.431 43.8886C105.359 43.8473 105.285 43.8027 105.213 43.7586C105.192 43.7461 105.172 43.7338 105.152 43.7215L105.074 43.6714L104.834 43.5071L104.772 43.4625C104.583 43.3177 104.393 43.1646 104.214 43.0058L104.156 42.9529L103.947 42.758C103.929 42.7389 103.911 42.7213 103.891 42.7051C103.723 42.5408 103.567 42.3737 103.419 42.2094L103.38 42.1648C103.362 42.1434 103.343 42.1224 103.324 42.1014C103.285 42.0567 103.245 42.0126 103.207 41.9671L103.157 41.9086L103.001 41.7165L102.976 41.6858C102.931 41.6259 102.888 41.5693 102.846 41.5148C102.774 41.4199 102.706 41.3315 102.644 41.243C102.122 40.9646 101.601 40.6861 101.085 40.4076C101.088 40.4363 101.092 40.4652 101.096 40.4942C101.106 40.5638 101.115 40.634 101.115 40.7028C101.143 40.9451 101.143 41.1901 101.143 41.4352C101.143 46.7403 96.9733 51.079 91.6876 51.4605C91.5369 51.6499 91.3975 51.8448 91.258 52.0453C90.4263 53.2404 89.6806 54.4931 89.0266 55.7937L93.099 60.5975L92.5969 65.1033C94.7781 68.3392 95.2746 73.1932 95.2746 76.8552C95.2774 77.7241 95.2523 78.5233 95.2161 79.2195C95.5777 81.5162 95.8114 83.8311 95.9162 86.1537L96.0166 88.3815L104.482 87.3651L114.632 93.0461L122.741 86.7858L145.307 88.582L140.997 94.9871ZM81.5902 33.9273L81.4794 33.9155C81.5169 33.92 81.5539 33.924 81.5902 33.9273ZM81.4794 33.9155C81.4417 33.911 81.4036 33.9062 81.3652 33.9012C81.2487 33.8863 81.1301 33.8711 81.0156 33.8661L81.4794 33.9155Z" fill="url(#paint0_linear)"/>
<path d="M129.516 113.829C126.727 117.814 116.699 115.703 116.699 115.703L108.928 108.443L107.882 107.46L109.637 103.74C109.637 103.74 110.195 103.893 111.151 104.166C116.175 105.622 131.87 110.479 129.516 113.829Z" fill="#EFB7B9"/>
<path opacity="0.1" d="M111.146 104.166C110.803 105.358 109.863 107.143 108.928 108.443L107.882 107.46L109.637 103.74C109.637 103.74 110.2 103.893 111.146 104.166Z" fill="black"/>
<path d="M84.494 62.2099C84.494 62.2099 77.331 65.3818 77.6824 73.1709C77.9353 78.189 78.483 83.188 79.3226 88.142C79.3226 88.142 77.8582 99.8633 83.9556 102.885C90.0531 105.906 95.6959 108.39 95.6959 108.39C95.6959 108.39 105.235 109.415 106.421 109.838C107.606 110.262 111.31 103.79 110.627 102.782C109.944 101.774 101.188 99.66 100.072 97.978C98.9566 96.2959 96.3765 95.2572 96.3765 95.2572C96.3765 95.2572 93.7127 93.6476 93.5313 92.1939C93.35 90.7403 94.0529 89.657 94.2315 89.0192C94.41 88.3815 94.8619 82.2243 94.8619 82.2243C94.8619 82.2243 97.8687 60.3078 84.494 62.2099Z" fill="#DCE6F2"/>
<path opacity="0.1" d="M89.2217 87.8218C89.2217 87.8218 79.3949 89.4648 80.3461 92.8985C80.3461 92.8985 83.9136 89.1919 89.2217 87.8218Z" fill="black"/>
<path opacity="0.1" d="M89.2973 89.2114C89.2973 89.2114 83.8944 93.6142 84.9516 93.8397C86.0087 94.0653 89.2973 89.2114 89.2973 89.2114Z" fill="black"/>
<path opacity="0.1" d="M91.8939 90.7458C91.8939 90.7458 90.4463 93.7061 91.336 93.5056C92.2258 93.3051 91.8939 90.7458 91.8939 90.7458Z" fill="black"/>
<path opacity="0.1" d="M111.508 104.481L110.911 104.311C111.082 103.754 111.129 103.303 110.99 103.094C110.306 102.086 101.556 99.9747 100.443 98.2899C99.3302 96.6051 96.7473 95.5691 96.7473 95.5691C96.7473 95.5691 94.0835 93.9595 93.9022 92.5058C93.7209 91.0522 94.4238 89.9689 94.6023 89.3311C94.7808 88.6934 95.2327 82.5334 95.2327 82.5334C95.2327 82.5334 98.2312 60.6198 84.8564 62.5218C84.8564 62.5218 77.6934 65.6965 78.0421 73.4856C78.2951 78.5038 78.8437 83.5028 79.685 88.4567C79.685 88.4567 78.2206 100.178 84.3181 103.199C90.4155 106.221 96.0583 108.705 96.0583 108.705C96.0583 108.705 105.595 109.727 106.783 110.153C107.232 110.315 108.044 109.482 108.839 108.337L109.291 108.758L117.062 116.015C117.062 116.015 127.089 118.129 129.879 114.144C132.236 110.791 116.543 105.934 111.508 104.481Z" fill="black"/>
<path d="M80.3716 32.9749C80.0985 33.0282 79.837 33.1291 79.5989 33.2729C79.32 33.5041 79.32 33.8995 79.2502 34.2448C79.1683 34.7252 78.9775 35.1805 78.6924 35.576C79.0098 35.5992 79.3282 35.5467 79.6212 35.4228C79.5735 35.8039 79.4798 36.178 79.3423 36.5367C79.6973 36.5457 80.0247 36.3463 80.1791 36.0271C80.3267 35.7133 80.4434 35.3859 80.5278 35.0496C80.554 34.949 80.5994 34.8545 80.6616 34.7711C80.9183 34.4676 81.3952 34.6041 81.7913 34.643C82.4626 34.6995 83.1118 34.3883 83.4872 33.8299C83.9084 33.1922 83.9335 31.5603 82.9294 31.3876C81.8806 31.2149 81.2279 32.6575 80.3716 32.9749Z" fill="#965D7B"/>
<g opacity="0.1">
<path d="M79.5706 33.6154C79.5957 33.479 79.6124 33.337 79.6431 33.2005V33.2005C79.3781 33.4316 79.3642 33.8243 79.2945 34.1724C79.2593 34.3732 79.2042 34.5701 79.1299 34.76C79.3495 34.4105 79.4992 34.0218 79.5706 33.6154V33.6154Z" fill="black"/>
<path d="M79.6599 35.9157C79.7988 35.5574 79.8925 35.1832 79.9389 34.8018C79.6596 34.9191 79.3572 34.9715 79.0547 34.9549C78.9666 35.1508 78.8591 35.3374 78.7339 35.5119C79.0502 35.5363 79.3677 35.4848 79.6599 35.3615C79.6136 35.7429 79.5199 36.1171 79.381 36.4754C79.7358 36.4838 80.0628 36.2846 80.2178 35.9658C80.2873 35.8392 80.3434 35.7058 80.3852 35.5676C80.2188 35.7997 79.9454 35.9309 79.6599 35.9157V35.9157Z" fill="black"/>
<path d="M82.1092 34.022C81.7131 33.983 81.2333 33.8466 80.9767 34.1501C80.9156 34.2341 80.8703 34.3285 80.8428 34.4286C80.8177 34.501 80.7954 34.5762 80.7759 34.6514C81.0409 34.4425 81.4704 34.5539 81.8302 34.5901C82.5012 34.6448 83.1495 34.334 83.5261 33.777C83.6107 33.6417 83.6737 33.4942 83.713 33.3397C83.3251 33.819 82.7241 34.0747 82.1092 34.022Z" fill="black"/>
</g>
<path d="M88.7673 55.9747L93.021 61.082L92.4659 66.2367L87.3252 58.2025L88.7673 55.9747V55.9747Z" fill="#DCE6F2"/>
<path opacity="0.1" d="M93.0182 61.082L92.4966 65.9304L92.4631 66.2367L87.8245 58.9851L87.3252 58.2025L87.4702 57.977L88.7645 55.9747L89.0518 56.32L93.0182 61.082V61.082Z" fill="black"/>
<path d="M95.2272 49.06C93.7879 49.4721 92.4128 50.8868 91.2162 52.6051C90.4074 53.7906 89.684 55.032 89.0516 56.32C88.6584 57.1053 88.3125 57.86 88.0252 58.5172L87.8243 58.9851C87.339 60.1296 87.0684 60.8954 87.0684 60.8954C87.0684 60.8954 76.0506 52.6246 77.794 52.0676C78.3797 51.881 79.1496 50.6278 79.9111 49.0489L80.0059 48.8483C80.4884 47.8347 80.9626 46.704 81.3838 45.6402C82.2457 43.4542 82.8845 41.5549 82.8845 41.5549C82.8845 41.5549 99.6204 47.8068 95.2272 49.06Z" fill="#EFB7B9"/>
<path d="M101.818 41.0899C101.818 41.0899 104.362 45.6848 107.779 45.0582C111.196 44.4316 109.79 42.5909 109.79 42.5909L101.818 41.0899Z" fill="#444053"/>
<path d="M96.8897 200.144C94.6359 201.172 89.5398 200.144 89.5398 200.144L87.392 200.011C84.6027 199.832 79.9334 199.532 78.2821 199.398C75.8722 199.2 76.4635 198.214 76.4635 198.214V192.258L88.1563 189.3C88.1563 189.3 92.7782 190.879 94.0446 192.258C95.2468 193.572 95.9497 192.561 98.0947 192.94C98.2006 192.959 98.3122 192.982 98.4294 193.01C100.466 193.475 101.57 193.658 102.223 195.343C102.354 195.697 102.459 196.06 102.538 196.429C103.141 199.142 99.1406 199.122 96.8897 200.144Z" fill="#A36468"/>
<path opacity="0.1" d="M102.223 195.343C101.804 195.605 101.363 195.83 100.906 196.017C99.3722 196.716 97.9133 197.568 96.3625 198.228C94.8116 198.888 93.1408 199.359 91.4617 199.234C90.583 199.17 89.6849 198.955 88.8453 199.206C88.326 199.406 87.837 199.677 87.392 200.011C84.6027 199.832 79.9334 199.532 78.2821 199.398C75.8722 199.2 76.4635 198.214 76.4635 198.214V197.518C76.55 197.518 76.6476 197.493 76.7592 197.485C77.3364 197.476 77.9112 197.561 78.4606 197.738C79.6712 198.067 80.8762 198.39 82.0868 198.713C82.288 197.955 82.7922 197.312 83.4814 196.936C84.1724 196.57 84.9479 196.392 85.7296 196.421C87.6068 196.446 89.3836 197.334 91.258 197.424C91.7821 197.472 92.3097 197.383 92.7894 197.167C93.046 197.039 93.2719 196.853 93.523 196.711C93.9247 196.517 94.3492 196.373 94.7865 196.285C96.0157 195.979 97.2226 195.59 98.3987 195.121C98.7334 194.99 99.1239 194.753 99.0793 194.396C99.0207 193.923 98.276 193.867 98.0807 193.433C98.0109 193.274 98.0191 193.092 98.103 192.94C98.209 192.959 98.3206 192.982 98.4377 193.01C100.466 193.475 101.57 193.658 102.223 195.343Z" fill="black"/>
<path d="M94.5076 213.177C91.8577 214.386 85.8607 213.177 85.8607 213.177L83.3364 213.03C80.0673 212.821 74.5612 212.473 72.617 212.308C69.7803 212.074 70.4776 210.916 70.4776 210.916V203.895L84.2373 200.414C84.2373 200.414 89.6765 202.272 91.166 203.895C92.5802 205.441 93.3974 204.252 95.9329 204.697C96.0584 204.72 96.1895 204.748 96.3262 204.778C98.7222 205.335 100.022 205.544 100.789 207.527C100.944 207.943 101.068 208.37 101.16 208.805C101.852 211.996 97.1574 211.971 94.5076 213.177Z" fill="#A36468"/>
<path opacity="0.1" d="M100.784 207.527C100.291 207.834 99.7728 208.1 99.2355 208.321C97.4308 209.142 95.7126 210.145 93.8884 210.922C92.0641 211.698 90.0977 212.25 88.12 212.105C87.088 212.03 86.0308 211.771 85.0518 212.072C84.4383 212.31 83.861 212.633 83.3364 213.03C80.0673 212.821 74.5612 212.473 72.617 212.308C69.7803 212.074 70.4776 210.916 70.4776 210.916V210.097C70.5931 210.078 70.7095 210.065 70.8263 210.058C71.5058 210.046 72.1826 210.147 72.829 210.356L77.0939 211.504C77.334 210.609 77.9322 209.853 78.7479 209.412C79.5609 208.979 80.4744 208.77 81.395 208.805C83.6041 208.836 85.6933 209.88 87.8997 209.986C88.5141 210.042 89.1327 209.939 89.696 209.688C90 209.535 90.2539 209.315 90.5607 209.15C91.0324 208.92 91.5322 208.751 92.0474 208.649C93.4859 208.287 94.8985 207.829 96.276 207.279C96.6693 207.123 97.1295 206.845 97.0765 206.427C97.0068 205.87 96.131 205.803 95.8995 205.291C95.8204 205.103 95.8307 204.89 95.9273 204.711C96.0529 204.734 96.184 204.762 96.3206 204.792C98.7167 205.327 100.016 205.544 100.784 207.527Z" fill="black"/>
<path d="M88.5107 165.003L87.766 182.5C87.766 182.5 86.6502 186.073 87.2555 187.095C87.8608 188.117 88.8817 189.136 88.5107 189.74C88.1397 190.345 83.6768 196.878 82.2347 194.371C80.7927 191.865 79.3701 181.004 79.3701 181.004L80.7006 167.59L88.5107 165.003Z" fill="#444053"/>
<path d="M91.7406 121.409L93.8103 124.172V148.199C93.8103 148.199 94.4156 154.604 93.8103 155.927C93.205 157.25 90.1368 159.895 90.1368 159.895L87.5566 146.668L88.1145 132.674L91.7406 121.409Z" fill="#444053"/>
<path opacity="0.1" d="M88.5107 165.003L87.766 182.5C87.766 182.5 86.6502 186.073 87.2555 187.095C87.8608 188.117 88.8817 189.136 88.5107 189.74C88.1397 190.345 83.6768 196.878 82.2347 194.371C80.7927 191.865 79.3701 181.004 79.3701 181.004L80.7006 167.59L88.5107 165.003Z" fill="black"/>
<path opacity="0.1" d="M91.7406 121.409L93.8103 124.172V148.199C93.8103 148.199 94.4156 154.604 93.8103 155.927C93.205 157.25 90.1368 159.895 90.1368 159.895L87.5566 146.668L88.1145 132.674L91.7406 121.409Z" fill="black"/>
<path d="M93.8105 111.161V124.158L91.487 134.275C91.487 134.275 90.7423 158.69 91.3922 161.658C92.0421 164.627 89.1607 167.414 89.1607 167.414C89.1607 167.414 87.4872 167.601 87.4872 168.899C87.4872 170.196 84.6978 173.911 84.6978 173.911L84.7899 181.152C84.7899 181.152 86.0005 194.706 84.14 197.304C82.2795 199.902 84.7899 200.275 84.7899 200.275C82.4664 207.886 71.3091 206.123 70.3022 205.288C69.2952 204.452 70.3022 188.022 70.3022 188.022C70.3022 188.022 72.7958 162.959 74.7483 161.845C76.7009 160.731 74.8432 159.338 75.4931 157.668C76.143 155.997 74.8432 151.449 74.8432 151.449C74.8432 151.449 74.2853 146.063 72.8907 143.465C71.496 140.867 71.6801 133.718 71.6801 133.718C71.6801 133.718 67.7751 128.519 66.6147 126.478C65.4543 124.436 64.7068 119.145 64.9857 115.152C65.1754 112.453 66.5952 108.524 67.4961 106.263C67.9285 105.179 68.2409 104.478 68.2409 104.478L68.5059 104.547L83.7411 108.53L93.8105 111.161Z" fill="#444053"/>
<path opacity="0.1" d="M95.2275 49.06C93.7882 49.4722 92.4131 50.8868 91.2165 52.6051H90.9041C87.3339 52.6076 84.0353 50.7028 82.2572 47.6119C81.8921 46.9827 81.5984 46.3149 81.3813 45.6208C82.2432 43.4347 82.882 41.5354 82.882 41.5354C82.882 41.5354 99.6207 47.8068 95.2275 49.06Z" fill="black"/>
<path d="M100.876 42.098C100.883 46.2737 98.2786 50.0099 94.3546 51.4548C90.4305 52.8997 86.0203 51.7462 83.3097 48.5661C80.5992 45.386 80.1644 40.8551 82.2209 37.219C82.5232 36.6799 82.8762 36.1707 83.2752 35.6985C83.933 34.9161 84.7061 34.2382 85.5681 33.6878C88.5297 31.8089 92.2625 31.6223 95.3973 33.1966C98.5321 34.7708 100.607 37.8742 100.862 41.3684C100.867 41.6134 100.876 41.8557 100.876 42.098Z" fill="#EFB7B9"/>
<path opacity="0.1" d="M92.4965 65.9304L92.463 66.2367L87.8243 58.9962C87.339 60.1408 87.0684 60.9066 87.0684 60.9066C87.0684 60.9066 76.0506 52.6246 77.794 52.0676C78.3797 51.881 79.1496 50.6279 79.9111 49.0489L80.0059 48.8484C80.8148 51.2544 85.5148 56.0638 87.4701 57.9909C87.696 58.2137 87.8829 58.3975 88.028 58.5311L88.3264 58.8096L88.4826 58.9656C89.1939 59.698 92.1952 62.9284 92.4965 65.9304Z" fill="black"/>
<path d="M95.9638 90.498L95.4562 106.809L95.3669 109.713C95.3669 109.713 89.3532 109.156 83.7411 108.544C79.2224 108.051 74.9631 107.519 74.3076 107.207C73.4708 106.814 71.6773 106.511 70.2631 106.318C69.1697 106.171 68.3106 106.093 68.3106 106.093C68.3106 106.093 67.9898 106.188 67.4961 106.277C66.4194 106.472 64.5282 106.63 63.4265 105.675C62.0179 104.453 65.7193 100.011 66.6425 98.9443L66.8462 98.7132L66.4975 95.4967L65.591 87.1562C65.591 87.1562 65.0331 82.3524 64.1963 79.7765C63.9726 79.0441 63.8112 78.2942 63.7138 77.5347C63.4028 75.182 63.5621 72.7911 64.1824 70.5002C64.4474 69.5268 64.6155 68.5297 64.6844 67.5233C64.8239 64.9473 72.7037 54.9916 74.6563 54.0866C75.5346 53.6776 76.2414 52.974 76.6534 52.0982C76.7894 51.8229 76.8915 51.532 76.9574 51.2321C77.7942 47.6119 79.9113 49.0489 79.9113 49.0489C80.4218 51.881 88.3239 59.3777 88.3239 59.3777L88.4801 59.5337C89.2639 60.3357 92.7561 64.1008 92.5079 67.3144C92.4583 68.5105 92.6372 69.7051 93.0351 70.8344C94.6424 75.8874 95.5664 81.1321 95.7825 86.4294L95.9638 90.498Z" fill="#DCE6F2"/>
<path opacity="0.1" d="M84.7675 71.1296C84.7675 71.1296 82.815 75.8638 81.3506 76.6296C79.8862 77.3955 85.4648 78.2448 84.7675 71.1296Z" fill="black"/>
<path opacity="0.1" d="M86.232 79.9714C86.232 79.9714 81.769 80.5283 81.769 81.3638C81.769 82.1992 86.232 79.9714 86.232 79.9714Z" fill="black"/>
<path opacity="0.1" d="M90.904 85.4018C90.904 85.4018 84.4189 99.1866 82.6058 99.6043C80.7928 100.022 90.904 85.4018 90.904 85.4018Z" fill="black"/>
<path opacity="0.1" d="M88.2011 60.0767L82.8373 62.4048L76.3633 52.6413C76.4993 52.3659 76.6014 52.0751 76.6673 51.7752C77.5041 48.1549 79.6212 49.5919 79.6212 49.5919C80.1316 52.4241 88.0338 59.9208 88.0338 59.9208L88.2011 60.0767Z" fill="black"/>
<path d="M88.48 59.5198L83.1161 61.8479L76.6421 52.0843C76.7781 51.8089 76.8802 51.5181 76.9461 51.2182C77.7829 47.598 79.9 49.0349 79.9 49.0349C80.4105 51.8671 88.3126 59.3638 88.3126 59.3638L88.48 59.5198Z" fill="#DCE6F2"/>
<path opacity="0.1" d="M95.3666 109.713C95.3666 109.713 89.3528 109.156 83.7407 108.544L93.8101 111.175V114.238C93.3694 114.637 92.9873 114.843 92.739 114.737C91.5787 114.25 82.1089 112.718 82.1089 112.718C82.1089 112.718 76.6084 109.933 70.6727 106.591C70.5287 106.512 70.389 106.424 70.2543 106.33C69.5622 105.86 68.9659 105.264 68.4971 104.572C67.4009 102.988 66.8653 100.952 66.6338 98.9554C66.5037 97.8111 66.4552 96.659 66.4888 95.5078C66.5175 94.2025 66.6368 92.9008 66.8458 91.6119C66.2718 86.62 65.9923 81.5986 66.009 76.5739C66.0787 68.7765 73.4007 65.9916 73.4007 65.9916C86.8592 64.8081 82.6863 86.5296 82.6863 86.5296C82.6863 86.5296 81.9081 92.6562 81.6961 93.2828C81.4841 93.9094 80.7227 94.9537 80.8259 96.4157C80.9291 97.8777 83.5008 99.6266 83.5008 99.6266C83.5008 99.6266 86.0112 100.802 87.046 102.542C87.7992 103.826 92.6916 105.567 95.4558 106.809L95.3666 109.713Z" fill="black"/>
<path opacity="0.1" d="M99.8742 35.9157C99.8793 36.3744 99.7841 36.8287 99.5952 37.2468C99.4522 37.5881 99.2864 37.9193 99.0987 38.2382C98.8052 38.8249 98.3885 39.3416 97.877 39.7532C97.2327 40.2127 96.4182 40.3408 95.6456 40.5273C94.8729 40.7139 94.0696 41.0119 93.6289 41.6691C93.39 42.0916 93.2303 42.554 93.1575 43.0337C93.0836 43.5129 92.8919 43.9664 92.5996 44.3537C92.2866 44.7425 91.7497 44.8708 91.2942 44.6656C91.061 44.5086 90.8841 44.2812 90.7894 44.0167C90.4714 43.301 90.3905 42.5073 90.2622 41.736C90.1339 40.9646 89.9526 40.1709 89.4784 39.5499C89.0042 38.9289 88.1646 38.5195 87.4199 38.7618C86.9162 38.9554 86.5133 39.3455 86.3041 39.8423C86.098 40.3344 85.9565 40.8511 85.883 41.3795C85.5371 43.2695 85.1289 45.1483 84.6584 47.016C84.6441 47.0925 84.6126 47.1649 84.5664 47.2276C84.4922 47.3014 84.3922 47.3434 84.2875 47.3446C83.6627 47.4281 83.063 46.9909 82.4326 47.0382C82.3676 47.0425 82.3032 47.0528 82.2401 47.0689C80.1523 43.4463 80.5546 38.9072 83.247 35.7068L83.2973 35.6929C83.7166 35.5443 84.0977 35.3046 84.413 34.9911C84.8156 34.5889 85.1885 34.1579 85.5287 33.7018L85.7519 33.4233C86.393 32.6522 87.1233 31.9595 87.9275 31.3597C88.1471 31.1802 88.3989 31.0441 88.6695 30.9587C88.9011 30.9137 89.1384 30.9062 89.3724 30.9365C90.3357 31.0519 91.3068 31.0882 92.2761 31.0451C92.9514 30.9391 93.6321 30.8703 94.3151 30.839C96.0807 30.8891 97.5869 32.1339 98.7027 33.4985C99.3024 34.1975 99.8379 35.0023 99.8742 35.9157Z" fill="black"/>
<path d="M80.918 37.4835C80.5303 38.1185 79.8301 38.5501 79.5679 39.2463C79.183 40.2572 79.8329 41.516 79.236 42.4182C79.038 42.7218 78.7116 42.9473 78.6001 43.2954C78.4104 43.883 78.9292 44.5096 78.7953 45.1139C78.6614 45.7182 77.8637 46.2278 78.0757 46.8182C78.2009 47.0757 78.4207 47.2752 78.6893 47.3752C79.112 47.6173 79.5984 47.7251 80.084 47.6843C80.8455 47.559 81.4117 46.8127 82.1843 46.757C82.8119 46.7124 83.4116 47.1468 84.0364 47.0661C84.1411 47.0624 84.2407 47.0197 84.3154 46.9463C84.3628 46.8843 84.3944 46.8116 84.4074 46.7347C84.876 44.8689 85.2851 42.99 85.6347 41.0982C85.7059 40.5697 85.8466 40.0528 86.0531 39.561C86.2639 39.0654 86.6662 38.6757 87.1688 38.4805C87.9136 38.241 88.7504 38.6476 89.2274 39.2686C89.7043 39.8896 89.8856 40.6833 90.0139 41.4547C90.1423 42.2261 90.2231 43.0197 90.5383 43.7354C90.6341 44.0009 90.8119 44.2291 91.046 44.3871C91.4644 44.6294 92.0278 44.4372 92.3486 44.0752C92.6425 43.6878 92.8343 43.233 92.9065 42.7524C92.9792 42.2736 93.139 41.8121 93.3779 41.3906C93.8186 40.7334 94.6247 40.4354 95.3945 40.2489C96.1644 40.0623 96.9761 39.9314 97.626 39.4719C98.1368 39.0608 98.5534 38.5452 98.8477 37.9597C99.2605 37.2413 99.6455 36.4615 99.612 35.6344C99.5757 34.7322 99.0402 33.9273 98.4684 33.2256C97.3526 31.861 95.8436 30.6162 94.078 30.5689C93.3948 30.5974 92.714 30.6662 92.039 30.7749C91.0697 30.8185 90.0984 30.7812 89.1353 30.6635C88.9011 30.6356 88.664 30.644 88.4324 30.6886C88.1615 30.7712 87.9101 30.9076 87.6932 31.0896C86.8882 31.6884 86.157 32.3801 85.5148 33.1504C85.1007 33.6985 84.6516 34.2195 84.1703 34.7099C83.8549 35.0238 83.4739 35.2644 83.0546 35.4144C82.7757 35.4924 82.4967 35.4367 82.2317 35.523C81.4089 35.782 81.3001 36.8542 80.918 37.4835Z" fill="#965D7B"/>
<path opacity="0.1" d="M107.779 45.0554C105.548 45.4648 103.698 43.663 102.675 42.3486C102.36 41.9494 102.074 41.5288 101.818 41.0899L109.478 42.5324L109.787 42.5909C109.787 42.5909 111.196 44.4316 107.779 45.0554Z" fill="black"/>
<g opacity="0.1">
<path d="M78.8775 44.3175C78.9195 43.9533 78.8449 43.5869 78.6598 43.2481C78.6598 43.276 78.626 43.3038 78.6147 43.3317C78.4533 43.7048 78.6711 44.0919 78.81 44.479C78.8398 44.427 78.8624 44.3729 78.8775 44.3175V44.3175Z" fill="black"/>
<path d="M79.4649 39.7587C79.4263 40.1438 79.4363 40.5307 79.4949 40.9144C79.5334 40.5293 79.5234 40.1424 79.4649 39.7587V39.7587Z" fill="black"/>
<path d="M98.8309 37.1549C98.5373 37.7416 98.1206 38.2583 97.6092 38.6699C96.9648 39.1294 96.1531 39.2575 95.3777 39.4441C94.6023 39.6306 93.8017 39.9286 93.361 40.5858C93.1226 41.0085 92.9629 41.4708 92.8896 41.9504C92.817 42.4308 92.6252 42.8855 92.3318 43.2732C92.011 43.6352 91.4476 43.8301 91.0292 43.5851C90.795 43.427 90.6173 43.1989 90.5215 42.9334C90.2063 42.2177 90.1226 41.4268 89.9971 40.6527C89.8716 39.8785 89.6847 39.0876 89.2105 38.4666C88.7363 37.8456 87.8968 37.4362 87.152 37.6785C86.6489 37.8729 86.2462 38.2628 86.0363 38.759C85.8298 39.2508 85.6891 39.7677 85.6179 40.2962C85.2701 42.188 84.861 44.0668 84.3906 45.9327C84.3775 46.0096 84.3459 46.0822 84.2985 46.1443C84.2239 46.2177 84.1243 46.2604 84.0196 46.2641C83.3948 46.3448 82.7951 45.9104 82.1675 45.9549C81.3949 46.0106 80.8286 46.757 80.0671 46.8795C79.5814 46.923 79.0941 46.815 78.6725 46.5704C78.4786 46.4871 78.3046 46.3637 78.162 46.2084C78.0298 46.3974 77.9918 46.6366 78.0588 46.8572C78.1817 47.1165 78.4023 47.3167 78.6725 47.4142C79.0941 47.6588 79.5814 47.7668 80.0671 47.7233C80.8286 47.6008 81.3949 46.8544 82.1675 46.7987C82.7951 46.7542 83.3948 47.1886 84.0196 47.1078C84.1243 47.1042 84.2239 47.0615 84.2985 46.9881C84.3459 46.926 84.3775 46.8534 84.3906 46.7765C84.8592 44.9199 85.2683 43.0411 85.6179 41.14C85.6891 40.6115 85.8298 40.0946 86.0363 39.6028C86.2462 39.1066 86.6489 38.7167 87.152 38.5223C87.8968 38.28 88.7335 38.6894 89.2105 39.3104C89.6875 39.9314 89.8688 40.7251 89.9971 41.4965C90.1254 42.2678 90.2063 43.0615 90.5215 43.7772C90.6173 44.0427 90.795 44.2708 91.0292 44.4289C91.4476 44.6711 92.011 44.479 92.3318 44.117C92.6252 43.7293 92.817 43.2746 92.8896 42.7942C92.9629 42.3146 93.1226 41.8523 93.361 41.4296C93.8017 40.7724 94.6078 40.4772 95.3777 40.2878C96.1476 40.0985 96.9592 39.9732 97.6092 39.5137C98.1206 39.1021 98.5373 38.5854 98.8309 37.9987C99.2437 37.283 99.6286 36.5033 99.5951 35.6762C99.5897 35.5699 99.5785 35.4639 99.5617 35.3587C99.4271 35.9961 99.1796 36.6044 98.8309 37.1549V37.1549Z" fill="black"/>
</g>
<path opacity="0.1" d="M99.6066 37.2385C100.322 38.5082 100.746 39.9207 100.848 41.3739C98.3625 39.9815 96.0251 38.4527 94.8452 37.9208C92.7895 36.9934 85.1021 37.1327 82.2124 37.219C82.5147 36.6799 82.8677 36.1707 83.2668 35.6985C83.9271 34.9155 84.703 34.2375 85.568 33.6878C87.8829 32.2211 90.7003 31.77 93.3585 32.4406C96.0167 33.1112 98.2814 34.8443 99.6205 37.2329L99.6066 37.2385Z" fill="black"/>
<path opacity="0.1" d="M108.476 43.8747C107.135 44.2868 104.945 43.4904 102.675 42.3486C102.36 41.9494 102.074 41.5288 101.818 41.0899L109.478 42.5324C109.985 42.8777 110.114 43.3706 108.476 43.8747Z" fill="black"/>
<path d="M91.4981 27.5835C91.4981 27.5835 84.1761 27.1658 82.1176 31.1342L81.7856 34.6514L81.2278 34.5901L81.1162 36.9823C81.1162 36.9823 92.307 36.4949 94.8536 37.6423C97.4002 38.7896 105.314 44.5709 108.485 43.5962C111.656 42.6215 108.206 41.7165 108.206 41.7165C108.206 41.7165 103.841 39.8701 103.841 38.422C103.841 36.9739 102.759 29.324 91.4981 27.5835Z" fill="#444053"/>
<path opacity="0.1" d="M77.3755 157.968C77.3755 157.968 82.0476 162.494 84.0699 162.146C84.0699 162.146 78.3517 161.658 77.3755 157.968Z" fill="black"/>
<path opacity="0.1" d="M76.3994 160.065C76.3994 160.065 76.8178 162.393 77.9335 162.165C79.0493 161.937 76.3994 160.065 76.3994 160.065Z" fill="black"/>
<path opacity="0.1" d="M83.7211 198.975C83.7211 198.975 77.0882 204.127 78.2067 204.266C79.3252 204.405 83.7211 198.975 83.7211 198.975Z" fill="black"/>
<path d="M92.5942 96.7248L114.072 93.2354V113.537L93.6653 112.47L92.5942 96.7248V96.7248Z" fill="#E33A4C"/>
<path opacity="0.05" d="M92.5942 96.7248L114.072 93.2354V113.537L93.6653 112.47L92.5942 96.7248V96.7248Z" fill="black"/>
<path d="M114.072 93.2354L139.828 95.1597L138.403 112.827L114.072 113.537V93.2354V93.2354Z" fill="#E33A4C"/>
<path opacity="0.1" d="M114.072 93.2354L139.828 95.1597L138.403 112.827L114.072 113.537V93.2354V93.2354Z" fill="black"/>
<path d="M121.991 87.0392L114.072 93.2354L139.828 95.1598L144.037 88.8187L121.991 87.0392V87.0392Z" fill="#E33A4C"/>
<path d="M84.8174 89.9577L104.153 87.6074L114.072 93.2355L92.594 96.7248L84.8174 89.9577V89.9577Z" fill="#E33A4C"/>
<path d="M118.78 98.5071V126.263L108.719 125.233L104.343 124.787L103.01 124.648L98.6359 124.2L92.5942 123.582V96.7248L114.069 98.184L118.78 98.5071V98.5071Z" fill="#E33A4C"/>
<path d="M139.828 95.1597V122.228L131.765 123.774L127.843 124.526L118.78 126.263V98.5071L139.828 95.1597V95.1597Z" fill="#E33A4C"/>
<path opacity="0.05" d="M139.828 95.1597V122.228L131.765 123.774L127.843 124.526L118.78 126.263V98.5071L139.828 95.1597V95.1597Z" fill="black"/>
<path d="M84.8174 102.567L92.594 96.7248L118.78 98.5071L114.925 104.99L84.8174 102.567V102.567Z" fill="#E33A4C"/>
<path opacity="0.1" d="M84.8174 102.567L92.594 96.7248L118.78 98.5071L114.925 104.99L84.8174 102.567V102.567Z" fill="white"/>
<path d="M139.828 95.1597L118.78 98.5071L125.631 104.634L148.177 100.857L139.828 95.1597V95.1597Z" fill="#E33A4C"/>
<path opacity="0.1" d="M139.828 95.1597L118.78 98.5071L125.631 104.634L148.177 100.857L139.828 95.1597V95.1597Z" fill="white"/>
<path opacity="0.1" d="M131.765 123.774L127.843 124.526V118.742L131.516 117.817L131.765 123.774V123.774Z" fill="white"/>
<path opacity="0.1" d="M108.719 121.407V125.233L104.343 124.787V121.407H108.719V121.407Z" fill="white"/>
<path opacity="0.1" d="M103.009 122.612V124.648L98.6357 124.2V122.612H103.009V122.612Z" fill="white"/>
<path opacity="0.1" d="M116.147 119.376C113.149 123.206 103.246 120.56 103.246 120.56L95.8882 112.896L94.8896 111.857L96.8422 108.237C96.8422 108.237 97.4 108.421 98.3317 108.744C103.263 110.465 118.671 116.154 116.147 119.376Z" fill="black"/>
<path d="M115.868 118.819C112.87 122.649 102.968 120.003 102.968 120.003L95.6094 112.339L94.6108 111.3L96.5634 107.68C96.5634 107.68 97.1212 107.864 98.0529 108.187C102.984 109.908 118.393 115.597 115.868 118.819Z" fill="#EFB7B9"/>
<path opacity="0.1" d="M98.0416 108.187C97.6344 109.357 96.5996 111.089 95.5982 112.339L94.5996 111.3L96.5521 107.68C96.5521 107.68 97.1128 107.864 98.0416 108.187Z" fill="black"/>
<path d="M73.68 64.8777C73.68 64.8777 66.358 67.6625 66.2883 75.46C66.2716 80.4847 66.5511 85.5061 67.1251 90.498C67.1251 90.498 65.0331 102.125 70.9604 105.466C76.8877 108.808 82.3966 111.593 82.3966 111.593C82.3966 111.593 91.8663 113.125 93.0295 113.612C94.1926 114.099 98.2344 107.833 97.6068 106.789C96.9792 105.745 88.3574 103.169 87.3337 101.428C86.31 99.6879 83.7885 98.5155 83.7885 98.5155C83.7885 98.5155 81.2167 96.7638 81.1135 95.3018C81.0103 93.8398 81.769 92.7955 81.9838 92.1689C82.1986 91.5423 82.9768 85.4157 82.9768 85.4157C82.9768 85.4157 87.1384 63.6803 73.68 64.8777Z" fill="#DCE6F2"/>
<path opacity="0.1" d="M77.027 90.6929C77.027 90.6929 67.1249 91.8068 67.892 95.2878C67.892 95.2878 71.6548 91.7762 77.027 90.6929Z" fill="black"/>
<path opacity="0.1" d="M77.027 92.0853C77.027 92.0853 71.4065 96.1929 72.4385 96.4714C73.4706 96.7499 77.027 92.0853 77.027 92.0853Z" fill="black"/>
<path opacity="0.1" d="M79.5374 93.7562C79.5374 93.7562 77.9336 96.6357 78.8401 96.4853C79.7466 96.3349 79.5374 93.7562 79.5374 93.7562Z" fill="black"/>
<path d="M182.636 31.2985C182.636 31.2985 172.037 30.6608 173.275 38.0851C173.275 38.0851 173.027 39.3967 174.218 39.9927C174.218 39.9927 174.237 39.4357 175.306 39.6278C175.686 39.6918 176.073 39.7105 176.458 39.6835C176.979 39.6488 177.475 39.4444 177.869 39.1015V39.1015C177.869 39.1015 180.851 37.8734 182.011 33.0056C182.011 33.0056 182.87 31.9418 182.848 31.6689L181.057 32.4347C181.057 32.4347 181.668 33.7241 181.185 34.7962C181.185 34.7962 181.13 32.482 180.784 32.5349C180.714 32.5349 179.855 32.9833 179.855 32.9833C179.855 32.9833 180.907 35.2278 180.112 36.8625C180.112 36.8625 180.413 34.0944 179.526 33.1448L178.265 33.88C178.265 33.88 179.495 36.1997 178.661 38.0934C178.661 38.0934 178.876 35.1889 178 34.0582L176.856 34.9466C176.856 34.9466 178.014 37.2357 177.308 38.8063C177.308 38.8063 177.216 35.4256 176.608 35.1694C176.608 35.1694 175.61 36.0494 175.459 36.4114C175.459 36.4114 176.248 38.0823 175.757 38.9484C175.757 38.9484 175.456 36.6954 175.2 36.6843C175.2 36.6843 174.204 38.177 174.101 39.1906C174.149 38.2456 174.444 37.3297 174.957 36.5339C174.383 36.6423 173.854 36.9163 173.434 37.322C173.434 37.322 173.587 36.2666 175.202 36.1747C175.202 36.1747 176.039 35.0413 176.246 34.9716C176.246 34.9716 174.639 34.838 173.665 35.2696C173.665 35.2696 174.522 34.2754 176.541 34.7127L177.657 33.7937C177.657 33.7937 175.543 33.5152 174.645 33.8243C174.645 33.8243 175.677 32.9443 177.961 33.5848L179.188 32.8524C179.188 32.8524 177.386 32.4625 176.313 32.6046C176.313 32.6046 177.445 31.9947 179.548 32.6547L180.427 32.262C180.427 32.262 179.105 32.003 178.72 31.9613C178.335 31.9195 178.312 31.8137 178.312 31.8137C179.149 31.6747 180.008 31.7711 180.792 32.0922C180.792 32.0922 182.675 31.4154 182.636 31.2985Z" fill="#E33A4C"/>
<path opacity="0.1" d="M214.841 68.4311C214.841 68.4311 204.242 67.7934 205.481 75.2177C205.481 75.2177 205.232 76.5294 206.423 77.1253C206.423 77.1253 206.443 76.5683 207.514 76.7605C207.894 76.8244 208.281 76.8431 208.666 76.8162C209.181 76.7789 209.671 76.5756 210.061 76.2369V76.2369C210.061 76.2369 213.045 75.0061 214.206 70.1382C214.206 70.1382 215.062 69.0772 215.028 68.8043L213.238 69.5673C213.238 69.5673 213.848 70.8567 213.369 71.9288C213.369 71.9288 213.31 69.6147 212.967 69.6676C212.897 69.6676 212.035 70.1159 212.035 70.1159C212.035 70.1159 213.09 72.3633 212.295 73.9952C212.295 73.9952 212.596 71.2271 211.706 70.2775L210.459 71.0043C210.459 71.0043 211.69 73.324 210.856 75.2177C210.856 75.2177 211.07 72.3132 210.194 71.1825L209.054 72.0737C209.054 72.0737 210.208 74.36 209.506 75.9306C209.506 75.9306 209.413 72.5499 208.805 72.2937C208.805 72.2937 207.807 73.1737 207.653 73.5357C207.653 73.5357 208.446 75.2066 207.955 76.0726C207.955 76.0726 207.653 73.8197 207.397 73.8086C207.397 73.8086 206.401 75.3013 206.298 76.3149C206.348 75.3698 206.644 74.454 207.157 73.6582C206.582 73.7669 206.052 74.0408 205.631 74.4463C205.631 74.4463 205.787 73.3909 207.402 73.299C207.402 73.299 208.225 72.1656 208.446 72.0959C208.446 72.0959 206.839 71.9623 205.865 72.3939C205.865 72.3939 206.722 71.3997 208.738 71.8509L209.854 70.9319C209.854 70.9319 207.737 70.6534 206.842 70.9625C206.842 70.9625 207.874 70.0825 210.158 70.723L211.386 69.9906C211.386 69.9906 209.581 69.6035 208.507 69.7428C208.507 69.7428 209.642 69.1329 211.745 69.7929L212.624 69.4002C212.624 69.4002 211.302 69.1413 210.914 69.0995C210.526 69.0577 210.507 68.9519 210.507 68.9519C211.344 68.8128 212.204 68.9092 212.989 69.2304C212.989 69.2304 214.875 68.5481 214.841 68.4311Z" fill="#E33A4C"/>
<path opacity="0.1" d="M150.45 61.8395C150.45 61.8395 152.891 51.5106 145.349 51.4744C145.349 51.4744 144.096 51.0066 143.307 52.0759C143.307 52.0759 143.845 52.1901 143.48 53.2094C143.353 53.5698 143.269 53.9436 143.229 54.3233C143.175 54.8409 143.291 55.362 143.561 55.8076V55.8076C143.561 55.8076 144.266 58.9544 148.86 60.9261C148.86 60.9261 149.764 61.9509 150.037 61.962L149.591 60.0711C149.591 60.0711 148.213 60.4527 147.237 59.7927C147.237 59.7927 149.533 60.1296 149.535 59.7927C149.535 59.723 149.256 58.8013 149.256 58.8013C149.256 58.8013 146.86 59.4529 145.382 58.3919C145.382 58.3919 148.063 59.1605 149.153 58.4504L148.651 57.0803C148.651 57.0803 146.141 57.8962 144.423 56.7516C144.423 56.7516 147.254 57.459 148.52 56.7906L147.837 55.5152C147.837 55.5152 145.382 56.2615 143.951 55.3008C143.951 55.3008 147.298 55.7853 147.661 55.2339C147.661 55.2339 146.964 54.1005 146.632 53.8889C146.632 53.8889 144.858 54.3846 144.077 53.7524C144.077 53.7524 146.35 53.8387 146.403 53.5992C146.403 53.5992 145.1 52.3656 144.107 52.0871C145.033 52.2974 145.887 52.7447 146.587 53.3848C146.577 52.8012 146.397 52.2331 146.068 51.7501C146.068 51.7501 147.084 52.0843 146.905 53.6995C146.905 53.6995 147.881 54.702 147.912 54.9304C147.912 54.9304 148.316 53.3737 148.057 52.3405C148.057 52.3405 148.894 53.3542 148.104 55.2618L148.819 56.5289C148.819 56.5289 149.466 54.4959 149.301 53.5603C149.301 53.5603 149.996 54.7243 148.972 56.863L149.488 58.197C149.488 58.197 150.177 56.4871 150.222 55.4122C150.222 55.4122 150.632 56.6319 149.619 58.5896L149.859 59.5197C149.859 59.5197 150.339 58.2638 150.445 57.8906C150.551 57.5175 150.659 57.5147 150.659 57.5147C150.655 58.3619 150.415 59.1912 149.965 59.9096C149.965 59.9096 150.33 61.8534 150.45 61.8395Z" fill="#E33A4C"/>
<path opacity="0.1" d="M127.237 65.3595C127.237 65.3595 118.724 59.0018 115.681 65.8886C115.681 65.8886 114.752 66.8494 115.419 67.9995C115.419 67.9995 115.737 67.5511 116.535 68.2947C116.817 68.5571 117.13 68.7852 117.466 68.9742C117.922 69.2274 118.448 69.3252 118.964 69.2527V69.2527C118.964 69.2527 122.133 69.8625 125.781 66.4344C125.781 66.4344 127.084 66.0167 127.207 65.7716L125.285 65.4347C125.285 65.4347 125.084 66.8466 124.094 67.4787C124.094 67.4787 125.318 65.5127 125 65.3706C124.936 65.34 123.977 65.2314 123.977 65.2314C123.977 65.2314 123.62 67.6876 122.058 68.6149C122.058 68.6149 123.834 66.4679 123.614 65.1868L122.155 65.1089C122.155 65.1089 121.907 67.7238 120.166 68.8489C120.166 68.8489 121.943 66.5403 121.84 65.1144L120.395 65.2314C120.395 65.2314 120.102 67.7739 118.649 68.6985C118.649 68.6985 120.431 65.8246 120.066 65.2787C120.066 65.2787 118.747 65.4653 118.42 65.6825C118.42 65.6825 118.167 67.5038 117.274 67.9661C117.274 67.9661 118.264 65.9192 118.063 65.7772C118.063 65.7772 116.409 66.4762 115.759 67.2727C116.322 66.5101 117.073 65.9072 117.941 65.5238C117.401 65.2999 116.808 65.238 116.234 65.3456C116.234 65.3456 116.942 64.5491 118.342 65.3595C118.342 65.3595 119.653 64.8666 119.876 64.9279C119.876 64.9279 118.607 63.9337 117.556 63.761C117.556 63.761 118.822 63.399 120.259 64.8749L121.706 64.7273C121.706 64.7273 120.097 63.3349 119.173 63.101C119.173 63.101 120.521 62.9311 122.074 64.719L123.502 64.783C123.502 64.783 122.211 63.4686 121.238 62.9952C121.238 62.9952 122.518 63.1066 123.913 64.8137L124.864 64.9668C124.864 64.9668 123.901 64.0256 123.6 63.7805C123.299 63.5354 123.341 63.4324 123.341 63.4324C124.117 63.7755 124.782 64.3269 125.263 65.0253C125.263 65.0253 127.201 65.4737 127.237 65.3595Z" fill="#E33A4C"/>
<path opacity="0.1" d="M155.58 6.29089C155.58 6.29089 147.067 -0.0696146 144.024 6.82001C144.024 6.82001 143.095 7.78076 143.761 8.93089C143.761 8.93089 144.079 8.48254 144.877 9.22608C145.161 9.48718 145.475 9.71428 145.811 9.90279C146.267 10.1562 146.793 10.254 147.309 10.1813V10.1813C147.309 10.1813 150.478 10.7911 154.126 7.36026C154.126 7.36026 155.429 6.94532 155.549 6.69747L153.627 6.36608C153.627 6.36608 153.429 7.77798 152.436 8.41013C152.436 8.41013 153.663 6.44406 153.345 6.30203C153.281 6.2714 152.322 6.16279 152.322 6.16279C152.322 6.16279 151.954 8.62456 150.392 9.54633C150.392 9.54633 152.166 7.39925 151.948 6.11823L150.489 6.04026C150.489 6.04026 150.238 8.6552 148.5 9.77747C148.5 9.77747 150.277 7.46887 150.174 6.04304L148.732 6.16001C148.732 6.16001 148.436 8.70532 146.983 9.62988C146.983 9.62988 148.768 6.75595 148.403 6.21013C148.403 6.21013 147.083 6.39671 146.757 6.61393C146.757 6.61393 146.503 8.4352 145.611 8.89747C145.611 8.89747 146.601 6.85064 146.4 6.70583C146.4 6.70583 144.746 7.4076 144.096 8.20406C144.657 7.44066 145.41 6.83764 146.277 6.4552C145.737 6.22964 145.143 6.16766 144.567 6.27697C144.567 6.27697 145.279 5.48051 146.679 6.29089C146.679 6.29089 147.99 5.7952 148.213 5.85925C148.213 5.85925 146.944 4.86507 145.892 4.68963C145.892 4.68963 147.156 4.33039 148.592 5.80355L150.04 5.65596C150.04 5.65596 148.433 4.26355 147.507 4.02684C147.507 4.02684 148.855 3.85975 150.411 5.6476L151.839 5.70887C151.839 5.70887 150.548 4.39444 149.571 3.9238C149.571 3.9238 150.855 4.0352 152.249 5.74228L153.198 5.89545C153.198 5.89545 152.232 4.96532 151.931 4.72583C151.63 4.48633 151.672 4.38051 151.672 4.38051C152.448 4.72321 153.113 5.27474 153.594 5.97342C153.594 5.97342 155.532 6.39671 155.58 6.29089Z" fill="#E33A4C"/>
<path opacity="0.1" d="M188.109 14.3473C188.109 14.3473 184.706 4.29139 178.288 8.24303C178.288 8.24303 176.977 8.52151 176.874 9.83316C176.874 9.83316 177.39 9.64379 177.618 10.702C177.703 11.0784 177.831 11.4438 178 11.7909C178.231 12.258 178.607 12.638 179.072 12.8742V12.8742C179.072 12.8742 181.336 15.1716 186.29 14.4114C186.29 14.4114 187.598 14.8068 187.838 14.6704L186.444 13.303C186.444 13.303 185.479 14.3529 184.301 14.3111C184.301 14.3111 186.43 13.3866 186.254 13.0886C186.218 13.0301 185.49 12.398 185.49 12.398C185.49 12.398 183.799 14.2164 181.986 14.0967C181.986 14.0967 184.667 13.3337 185.214 12.1473L184.059 11.259C184.059 11.259 182.368 13.2696 180.296 13.2083C180.296 13.2083 183.085 12.3144 183.791 11.078L182.536 10.3567C182.536 10.3567 180.862 12.2866 179.127 12.2253C179.127 12.2253 182.229 10.8691 182.237 10.2119C182.237 10.2119 181.046 9.61873 180.653 9.61316C180.653 9.61316 179.409 10.9694 178.422 10.8468C178.422 10.8468 180.396 9.71898 180.313 9.48784C180.313 9.48784 178.555 9.1286 177.565 9.41822C178.461 9.1069 179.422 9.03489 180.355 9.20936C180.036 8.71895 179.582 8.33184 179.046 8.09544C179.046 8.09544 180.084 7.84202 180.779 9.30126C180.779 9.30126 182.14 9.63822 182.285 9.81366C182.285 9.81366 181.805 8.27923 181.038 7.53847C181.038 7.53847 182.285 7.95898 182.625 9.99468L183.903 10.6909C183.903 10.6909 183.375 8.62733 182.739 7.90607C182.739 7.90607 183.947 8.52987 184.209 10.883L185.353 11.7435C185.353 11.7435 185.035 9.92784 184.5 8.98658C184.5 8.98658 185.493 9.80531 185.671 12.0025L186.366 12.6653C186.366 12.6653 186.109 11.3453 186.003 10.9721C185.897 10.599 185.983 10.5739 185.983 10.5739C186.427 11.2963 186.661 12.1271 186.661 12.9744C186.661 12.9744 188.011 14.4197 188.109 14.3473Z" fill="#E33A4C"/>
<path opacity="0.1" d="M165.9 14.843C165.9 14.843 155.329 13.6678 156.202 21.1562C156.202 21.1562 155.886 22.4539 157.038 23.1056C157.038 23.1056 157.086 22.5486 158.154 22.7992C158.532 22.8803 158.917 22.9186 159.303 22.9134C159.825 22.904 160.329 22.7251 160.74 22.4038V22.4038C160.74 22.4038 163.783 21.3261 165.203 16.5223C165.203 16.5223 166.112 15.5058 166.093 15.2301L164.266 15.904C164.266 15.904 164.823 17.2213 164.266 18.2684C164.266 18.2684 164.324 15.9542 163.987 15.9904C163.917 15.9904 163.035 16.3914 163.035 16.3914C163.035 16.3914 163.973 18.6889 163.097 20.2901C163.097 20.2901 163.538 17.5387 162.698 16.5473L161.401 17.2157C161.401 17.2157 162.517 19.5967 161.582 21.4458C161.582 21.4458 161.945 18.5552 161.128 17.3828L159.942 18.2182C159.942 18.2182 160.98 20.5603 160.196 22.0947C160.196 22.0947 160.277 18.7139 159.683 18.4271C159.683 18.4271 158.639 19.2625 158.469 19.6078C158.469 19.6078 159.175 21.3066 158.642 22.1559C158.642 22.1559 158.455 19.8919 158.21 19.8696C158.21 19.8696 157.139 21.3094 156.983 22.3258C157.079 21.3834 157.422 20.4828 157.976 19.7137C157.397 19.7935 156.854 20.0403 156.414 20.4238C156.414 20.4238 156.62 19.3795 158.238 19.3684C158.238 19.3684 159.116 18.2795 159.354 18.221C159.354 18.221 157.755 18.0066 156.759 18.3881C156.759 18.3881 157.666 17.4357 159.658 17.9899L160.832 17.1294C160.832 17.1294 158.709 16.7005 157.811 16.979C157.811 16.979 158.888 16.1435 161.136 16.9094L162.399 16.2382C162.399 16.2382 160.617 15.7592 159.538 15.8456C159.538 15.8456 160.701 15.2886 162.768 16.06L163.666 15.7119C163.666 15.7119 162.358 15.3861 161.973 15.3248C161.588 15.2635 161.574 15.1577 161.574 15.1577C162.417 15.0611 163.271 15.1999 164.04 15.5587C164.04 15.5587 165.92 14.96 165.9 14.843Z" fill="#E33A4C"/>
<path opacity="0.1" d="M258.394 96.7638C258.394 96.7638 247.828 95.5886 248.701 103.069C248.701 103.069 248.386 104.366 249.538 105.018C249.538 105.018 249.585 104.461 250.654 104.709C251.031 104.793 251.417 104.831 251.803 104.823C252.325 104.815 252.83 104.636 253.239 104.313V104.313C253.239 104.313 256.283 103.236 257.688 98.4347C257.688 98.4347 258.598 97.4155 258.578 97.1425L256.751 97.8137C256.751 97.8137 257.309 99.1337 256.751 100.181C256.751 100.181 256.81 97.8638 256.472 97.9028C256.402 97.9028 255.521 98.301 255.521 98.301C255.521 98.301 256.458 100.598 255.582 102.2C255.582 102.2 256.023 99.4511 255.184 98.457L253.887 99.1281C253.887 99.1281 255.002 101.509 254.071 103.358C254.071 103.358 254.43 100.468 253.613 99.2924L252.428 100.128C252.428 100.128 253.465 102.47 252.682 104.002C252.682 104.002 252.762 100.621 252.168 100.337C252.168 100.337 251.128 101.172 250.955 101.517C250.955 101.517 251.663 103.216 251.128 104.066C251.128 104.066 250.941 101.802 250.696 101.779C250.696 101.779 249.624 103.219 249.468 104.235C249.565 103.293 249.907 102.392 250.461 101.623C249.882 101.702 249.339 101.949 248.899 102.333C248.899 102.333 249.106 101.286 250.723 101.275C250.723 101.275 251.605 100.186 251.839 100.131C251.839 100.131 250.241 99.9134 249.245 100.295C249.245 100.295 250.152 99.3453 252.146 99.8995L253.317 99.039C253.317 99.039 251.22 98.6436 250.308 98.9165C250.308 98.9165 251.384 98.081 253.633 98.8441L254.896 98.1757C254.896 98.1757 253.114 97.6967 252.034 97.783C252.034 97.783 253.198 97.2261 255.264 97.9975L256.163 97.6466C256.163 97.6466 254.854 97.3208 254.469 97.2623C254.085 97.2038 254.071 97.0952 254.071 97.0952C254.914 96.9968 255.767 97.1347 256.536 97.4934C256.536 97.4934 258.422 96.8836 258.394 96.7638Z" fill="#E33A4C"/>
<path opacity="0.1" d="M274.547 106.616C274.547 106.616 263.981 105.444 264.854 112.921C264.854 112.921 264.542 114.219 265.691 114.871C265.691 114.871 265.738 114.314 266.807 114.564C267.183 114.646 267.568 114.683 267.953 114.676C268.472 114.665 268.974 114.487 269.384 114.169V114.169C269.384 114.169 272.424 113.091 273.83 108.287C273.83 108.287 274.742 107.271 274.72 106.995L272.893 107.666C272.893 107.666 273.451 108.986 272.893 110.033C272.893 110.033 272.951 107.719 272.614 107.755C272.544 107.755 271.663 108.154 271.663 108.154C271.663 108.154 272.6 110.451 271.724 112.052C271.724 112.052 272.165 109.304 271.325 108.312L270.028 108.981C270.028 108.981 271.144 111.362 270.212 113.211C270.212 113.211 270.572 110.32 269.755 109.148L268.569 109.983C268.569 109.983 269.607 112.325 268.826 113.86C268.826 113.86 268.904 110.476 268.31 110.192C268.31 110.192 267.27 111.028 267.097 111.373C267.097 111.373 267.805 113.072 267.27 113.921C267.27 113.921 267.083 111.657 266.837 111.635C266.837 111.635 265.766 113.074 265.613 114.091C265.709 113.149 266.051 112.248 266.603 111.479C266.024 111.559 265.481 111.805 265.041 112.189C265.041 112.189 265.25 111.142 266.868 111.133C266.868 111.133 267.747 110.045 267.984 109.986C267.984 109.986 266.385 109.772 265.39 110.153C265.39 110.153 266.296 109.201 268.29 109.755L269.462 108.894C269.462 108.894 267.364 108.499 266.452 108.772C266.452 108.772 267.529 107.936 269.777 108.702L271.041 108.031C271.041 108.031 269.258 107.552 268.179 107.638C268.179 107.638 269.342 107.082 271.409 107.853L272.307 107.505C272.307 107.505 270.999 107.179 270.617 107.118C270.235 107.056 270.215 106.951 270.215 106.951C271.058 106.854 271.912 106.993 272.681 107.352C272.681 107.352 274.575 106.736 274.547 106.616Z" fill="#E33A4C"/>
<path opacity="0.1" d="M238.685 23.6263C238.685 23.6263 230.172 17.2686 227.129 24.1554C227.129 24.1554 226.2 25.1162 226.866 26.2663C226.866 26.2663 227.184 25.818 227.982 26.5615C228.265 26.824 228.577 27.0521 228.914 27.241C229.369 27.4941 229.895 27.5918 230.412 27.5195V27.5195C230.412 27.5195 233.58 28.1294 237.231 24.7013C237.231 24.7013 238.531 24.2835 238.654 24.0385L236.738 23.6932C236.738 23.6932 236.537 25.1051 235.547 25.7372C235.547 25.7372 236.771 23.7711 236.453 23.6291C236.389 23.5985 235.432 23.4899 235.432 23.4899C235.432 23.4899 235.072 25.9461 233.51 26.8734C233.51 26.8734 235.287 24.7263 235.067 23.4453L233.608 23.3673C233.608 23.3673 233.36 25.9823 231.619 27.1073C231.619 27.1073 233.399 24.7987 233.293 23.3729L231.848 23.4899C231.848 23.4899 231.569 26.0324 230.102 26.957C230.102 26.957 231.887 24.083 231.519 23.5372C231.519 23.5372 230.2 23.7238 229.873 23.941C229.873 23.941 229.622 25.7623 228.73 26.2246C228.73 26.2246 229.717 24.1777 229.516 24.0357C229.516 24.0357 227.862 24.7347 227.212 25.5311C227.774 24.7686 228.526 24.1657 229.393 23.7823C228.854 23.5584 228.261 23.4964 227.686 23.604C227.686 23.604 228.398 22.8076 229.798 23.618C229.798 23.618 231.106 23.1251 231.329 23.1863C231.329 23.1863 230.06 22.1921 229.009 22.0195C229.009 22.0195 230.275 21.6575 231.711 23.1334L233.159 22.9858C233.159 22.9858 231.552 21.5934 230.626 21.3595C230.626 21.3595 231.974 21.1896 233.527 22.9775L234.958 23.0415C234.958 23.0415 233.664 21.7271 232.69 21.2537C232.69 21.2537 233.974 21.3651 235.365 23.0721L236.317 23.2253C236.317 23.2253 235.354 22.284 235.053 22.039C234.752 21.7939 234.796 21.7132 234.796 21.7132C235.571 22.0568 236.236 22.6082 236.715 23.3061C236.715 23.3061 238.648 23.7405 238.685 23.6263Z" fill="#E33A4C"/>
<path opacity="0.1" d="M245.262 69.5256C245.262 69.5256 242.327 59.3248 235.728 62.9868C235.728 62.9868 234.406 63.1901 234.241 64.5101C234.241 64.5101 234.766 64.3458 234.947 65.4124C235.014 65.7956 235.126 66.1695 235.282 66.5263C235.489 67.0062 235.847 67.4053 236.303 67.6625V67.6625C236.303 67.6625 238.461 70.0575 243.443 69.5228C243.443 69.5228 244.732 69.9739 244.977 69.8514L243.658 68.42C243.658 68.42 242.645 69.4281 241.474 69.3334C241.474 69.3334 243.638 68.498 243.471 68.2C243.438 68.1387 242.74 67.4732 242.74 67.4732C242.74 67.4732 240.972 69.2165 239.164 69.0132C239.164 69.0132 241.878 68.3727 242.475 67.2197L241.36 66.2785C241.36 66.2785 239.58 68.2111 237.513 68.0608C237.513 68.0608 240.325 67.2894 241.1 66.0891L239.878 65.3121C239.878 65.3121 238.107 67.164 236.389 67.0248C236.389 67.0248 239.549 65.8078 239.588 65.1534C239.588 65.1534 238.422 64.5073 238.029 64.4851C238.029 64.4851 236.726 65.7828 235.736 65.6157C235.736 65.6157 237.761 64.577 237.689 64.343C237.689 64.343 235.948 63.9058 234.947 64.1481C235.854 63.8796 236.815 63.8518 237.736 64.0673C237.441 63.5634 237.005 63.1568 236.481 62.8977C236.481 62.8977 237.53 62.6889 238.155 64.1787C238.155 64.1787 239.496 64.5742 239.636 64.758C239.636 64.758 239.226 63.2013 238.492 62.4299C238.492 62.4299 239.719 62.9033 239.968 64.9529L241.212 65.7076C241.212 65.7076 240.777 63.619 240.174 62.8838C240.174 62.8838 241.351 63.5605 241.51 65.922L242.626 66.8327C242.626 66.8327 242.389 65.0058 241.898 64.0478C241.898 64.0478 242.855 64.9111 242.933 67.1111L243.597 67.8073C243.597 67.8073 243.401 66.4762 243.318 66.0975C243.234 65.7187 243.318 65.6658 243.318 65.6658C243.73 66.4066 243.928 67.2474 243.889 68.0942C243.889 68.0942 245.161 69.5924 245.262 69.5256Z" fill="#E33A4C"/>
<path opacity="0.1" d="M179.875 92.5114C179.875 92.5114 174.176 83.5499 168.885 88.9134C168.885 88.9134 167.674 89.4704 167.886 90.7932C167.886 90.7932 168.346 90.4868 168.821 91.4615C168.991 91.8069 169.203 92.1305 169.451 92.4251C169.784 92.8271 170.239 93.109 170.748 93.2271V93.2271C170.748 93.2271 173.496 94.9203 178.126 93.0043C178.126 93.0043 179.49 93.0767 179.691 92.8901L178.017 91.8876C178.017 91.8876 177.328 93.1408 176.176 93.3775C176.176 93.3775 178.023 91.9851 177.774 91.7289C177.727 91.6787 176.868 91.2387 176.868 91.2387C176.868 91.2387 175.66 93.4053 173.869 93.72C173.869 93.72 176.293 92.3415 176.544 91.0661L175.208 90.4785C175.208 90.4785 174.045 92.8317 172.02 93.2633C172.02 93.2633 174.503 91.7344 174.907 90.3643L173.512 89.9633C173.512 89.9633 172.335 92.2385 170.648 92.5866C170.648 92.5866 173.337 90.5314 173.189 89.8909C173.189 89.8909 171.889 89.5985 171.515 89.6876C171.515 89.6876 170.631 91.3 169.632 91.417C169.632 91.417 171.284 89.8519 171.147 89.6458C171.147 89.6458 169.353 89.7155 168.461 90.2306C169.257 89.7157 170.175 89.418 171.122 89.3673C170.698 88.9666 170.165 88.6984 169.591 88.596C169.591 88.596 170.536 88.103 171.543 89.3562C171.543 89.3562 172.938 89.3562 173.13 89.4955C173.13 89.4955 172.293 88.103 171.376 87.5823C171.376 87.5823 172.687 87.6937 173.501 89.5901L174.91 89.9633C174.91 89.9633 173.903 88.0836 173.119 87.5461C173.119 87.5461 174.438 87.8636 175.256 90.0886L176.572 90.6456C176.572 90.6456 175.83 88.9608 175.085 88.1727C175.085 88.1727 176.246 88.7296 176.94 90.821L177.777 91.3028C177.777 91.3028 177.219 90.0803 177.021 89.7433C176.823 89.4063 176.901 89.3284 176.901 89.3284C177.505 89.9236 177.931 90.6747 178.131 91.4977C178.131 91.4977 179.799 92.6061 179.875 92.5114Z" fill="#E33A4C"/>
<path d="M217.327 46.7235C217.327 46.7235 211.907 37.5922 206.449 42.7886C206.449 42.7886 205.221 43.3177 205.394 44.6377C205.394 44.6377 205.86 44.3425 206.306 45.3311C206.466 45.6826 206.667 46.0136 206.906 46.317C207.226 46.7276 207.673 47.0213 208.178 47.1524V47.1524C208.178 47.1524 210.87 48.9291 215.558 47.1524C215.558 47.1524 216.92 47.2666 217.126 47.0856L215.489 46.0329C215.489 46.0329 214.763 47.261 213.603 47.4643C213.603 47.4643 215.491 46.1192 215.254 45.8658C215.204 45.8129 214.362 45.3451 214.362 45.3451C214.362 45.3451 213.087 47.4754 211.294 47.7344C211.294 47.7344 213.759 46.4311 214.047 45.1668L212.73 44.5486C212.73 44.5486 211.494 46.8684 209.455 47.2387C209.455 47.2387 211.985 45.7879 212.432 44.4317L211.054 43.9861C211.054 43.9861 209.804 46.2139 208.108 46.5203C208.108 46.5203 210.858 44.5486 210.73 43.9053C210.73 43.9053 209.441 43.5711 209.057 43.6491C209.057 43.6491 208.122 45.2337 207.121 45.32C207.121 45.32 208.819 43.8106 208.691 43.599C208.691 43.599 206.895 43.6129 205.988 44.1003C206.8 43.6112 207.726 43.3424 208.674 43.3205C208.262 42.9065 207.738 42.622 207.165 42.5018C207.165 42.5018 208.128 42.0367 209.118 43.3205C209.118 43.3205 210.513 43.3679 210.699 43.5099C210.699 43.5099 209.91 42.1175 209.006 41.5438C209.006 41.5438 210.312 41.6942 211.068 43.6157L212.462 44.0334C212.462 44.0334 211.517 42.123 210.747 41.5605C210.747 41.5605 212.058 41.9198 212.805 44.1671L214.102 44.7714C214.102 44.7714 213.413 43.0643 212.708 42.2651C212.708 42.2651 213.849 42.8582 214.482 44.9691L215.299 45.476C215.299 45.476 214.775 44.2367 214.591 43.8942C214.406 43.5517 214.485 43.4765 214.485 43.4765C215.069 44.09 215.472 44.8535 215.648 45.682C215.648 45.682 217.246 46.8154 217.327 46.7235Z" fill="#E33A4C"/>
<path d="M183.038 65.9248C183.038 65.9248 183.317 55.3147 175.933 56.8101C175.933 56.8101 174.611 56.6068 174.053 57.8154C174.053 57.8154 174.611 57.8154 174.455 58.8876C174.404 59.2699 174.398 59.6569 174.438 60.0405C174.489 60.5608 174.709 61.0501 175.066 61.4329V61.4329C175.066 61.4329 176.396 64.3681 181.308 65.3651C181.308 65.3651 182.399 66.1866 182.672 66.142L181.835 64.382C181.835 64.382 180.566 65.0337 179.476 64.5909C179.476 64.5909 181.791 64.4544 181.727 64.1147C181.727 64.0451 181.247 63.1985 181.247 63.1985C181.247 63.1985 179.032 64.3263 177.373 63.5856C177.373 63.5856 180.162 63.7944 181.074 62.8782L180.296 61.6445C180.296 61.6445 178.014 62.9478 176.089 62.1792C176.089 62.1792 179.004 62.2962 180.109 61.3856L179.18 60.2716C179.18 60.2716 176.929 61.5025 175.334 60.8509C175.334 60.8509 178.714 60.6476 178.96 60.0321C178.96 60.0321 178.045 59.0658 177.677 58.9182C177.677 58.9182 176.042 59.7537 175.149 59.3025C175.149 59.3025 177.381 58.9294 177.395 58.6815C177.395 58.6815 175.869 57.7375 174.84 57.6678C175.789 57.6848 176.717 57.9498 177.532 58.4364C177.404 57.8672 177.114 57.3475 176.695 56.941C176.695 56.941 177.757 57.0607 177.902 58.6676C177.902 58.6676 179.066 59.4529 179.141 59.6701C179.141 59.6701 179.222 58.0633 178.756 57.1053C178.756 57.1053 179.782 57.9268 179.398 59.9542L180.354 61.0514C180.354 61.0514 180.572 58.9294 180.223 58.0466C180.223 58.0466 181.138 59.0463 180.575 61.3466L181.347 62.5468C181.347 62.5468 181.676 60.7339 181.501 59.6673C181.501 59.6673 182.148 60.7813 181.556 62.9005L181.98 63.7638C181.98 63.7638 182.195 62.4354 182.223 62.0483C182.251 61.6613 182.357 61.6362 182.357 61.6362C182.525 62.4669 182.458 63.3279 182.165 64.123C182.165 64.123 182.915 65.961 183.038 65.9248Z" fill="#E33A4C"/>
<path opacity="0.1" d="M195.244 200.743C199.393 200.743 202.756 200.176 202.756 199.476C202.756 198.776 199.393 198.209 195.244 198.209C191.095 198.209 187.732 198.776 187.732 199.476C187.732 200.176 191.095 200.743 195.244 200.743Z" fill="#E33A4C"/>
<path opacity="0.1" d="M167.861 219.981C172.01 219.981 175.373 219.413 175.373 218.713C175.373 218.014 172.01 217.446 167.861 217.446C163.713 217.446 160.35 218.014 160.35 218.713C160.35 219.413 163.713 219.981 167.861 219.981Z" fill="#E33A4C"/>
<path opacity="0.1" d="M26.2587 210.125C30.4073 210.125 33.7703 209.558 33.7703 208.858C33.7703 208.158 30.4073 207.591 26.2587 207.591C22.1101 207.591 18.7471 208.158 18.7471 208.858C18.7471 209.558 22.1101 210.125 26.2587 210.125Z" fill="#E33A4C"/>
<path opacity="0.1" d="M224.836 218.713C228.984 218.713 232.347 218.146 232.347 217.446C232.347 216.747 228.984 216.179 224.836 216.179C220.687 216.179 217.324 216.747 217.324 217.446C217.324 218.146 220.687 218.713 224.836 218.713Z" fill="#E33A4C"/>
<path d="M232.657 203.263C238.851 203.263 243.873 202.415 243.873 201.37C243.873 200.324 238.851 199.476 232.657 199.476C226.462 199.476 221.441 200.324 221.441 201.37C221.441 202.415 226.462 203.263 232.657 203.263Z" fill="#E33A4C"/>
<path d="M237.307 198.27C237.819 197.855 238.191 197.293 238.375 196.661C238.514 196.02 238.241 195.254 237.63 195.02C236.944 194.758 236.21 195.232 235.652 195.711C235.095 196.19 234.461 196.738 233.733 196.638C234.494 195.949 234.837 194.912 234.637 193.906C234.606 193.701 234.519 193.509 234.386 193.349C234.004 192.943 233.315 193.118 232.858 193.438C231.407 194.458 231.003 196.424 230.994 198.195C230.849 197.557 230.972 196.892 230.969 196.246C230.966 195.599 230.785 194.853 230.23 194.513C229.889 194.324 229.504 194.228 229.114 194.235C228.462 194.213 227.734 194.277 227.29 194.753C226.732 195.343 226.88 196.337 227.36 196.981C227.84 197.624 228.573 198.039 229.248 198.49C229.788 198.812 230.25 199.251 230.598 199.774C230.638 199.847 230.671 199.923 230.696 200.002H234.785C235.7 199.542 236.549 198.959 237.307 198.27Z" fill="#E33A4C"/>
<path d="M21.2153 202.968C21.2153 202.968 25.4969 202.837 26.794 201.918C28.091 200.999 33.3851 199.905 33.7059 201.378C34.0267 202.851 40.1436 208.699 35.307 208.738C30.4703 208.777 24.0688 207.986 22.7801 207.201C21.4915 206.416 21.2153 202.968 21.2153 202.968Z" fill="#A8A8A8"/>
<path opacity="0.2" d="M35.3879 208.226C30.5512 208.265 24.1497 207.474 22.861 206.689C21.8792 206.093 21.4887 203.951 21.3576 202.963H21.2153C21.2153 202.963 21.4943 206.413 22.7746 207.195C24.0549 207.978 30.4647 208.772 35.3014 208.733C36.696 208.733 37.1786 208.226 37.1535 207.491C36.9582 207.939 36.4255 208.217 35.3879 208.226Z" fill="black"/>
<defs>
<linearGradient id="paint0_linear" x1="62.4778" y1="214.571" x2="149.541" y2="214.571" gradientUnits="userSpaceOnUse">
<stop stop-color="#808080" stop-opacity="0.25"/>
<stop offset="0.54" stop-color="#808080" stop-opacity="0.12"/>
<stop offset="1" stop-color="#808080" stop-opacity="0.1"/>
</linearGradient>
</defs>
</svg>
