<svg width="298" height="216" viewBox="0 0 298 216" fill="none" xmlns="http://www.w3.org/2000/svg">
<path opacity="0.1" d="M3.54395 116.765C8.25121 136.869 18.2162 154.247 33.9649 162.67C66.6934 180.175 140.505 171.148 195.593 160.773C223.427 155.552 248.694 141.123 267.324 119.811L3.54395 116.765Z" fill="#0960BD"/>
<path opacity="0.1" d="M292.422 22.1409H262.196C260.754 22.1409 259.584 20.9721 259.584 19.5304C259.584 18.0887 260.754 16.9199 262.196 16.9199H267.422C265.979 16.9199 264.809 15.7512 264.809 14.3095C264.809 12.8678 265.979 11.699 267.422 11.699H263.688C262.245 11.699 261.075 10.5303 261.075 9.08854C261.075 7.64682 262.245 6.47807 263.688 6.47807H279.469C275.968 4.85246 271.877 3.69556 267.164 3.08867C224.148 -2.43301 208.79 1.21921 203.372 4.98522C196.688 9.61822 189.231 13.0266 181.262 14.6685C154.716 20.1332 105.081 26.7143 60.1042 12.547C37.7447 5.5027 21.1256 17.4022 11.166 37.2781H297.672C297.298 31.5017 296.178 26.1697 294.122 21.4988C293.651 21.9104 293.048 22.1384 292.422 22.1409Z" fill="#0960BD"/>
<path opacity="0.1" fill-rule="evenodd" clip-rule="evenodd" d="M2.1663 109.881C0.226588 98.2921 -0.168214 86.4977 0.992192 74.8054L285.977 91.4707C281.128 101.625 274.925 111.076 267.538 119.567L2.1663 109.881ZM100.715 99.8264H105.929C107.372 99.8264 108.542 98.6576 108.542 97.2159C108.542 95.7742 107.372 94.6054 105.929 94.6054H102.206C103.649 94.6054 104.819 93.4367 104.819 91.995C104.819 90.5532 103.649 89.3845 102.206 89.3845H71.9807C70.5378 89.3845 69.3681 90.5532 69.3681 91.995C69.3681 93.4367 70.5378 94.6054 71.9807 94.6054H75.7145C74.2716 94.6054 73.102 95.7742 73.102 97.2159C73.102 98.6576 74.2716 99.8264 75.7145 99.8264H70.4894C69.0465 99.8264 67.8768 100.995 67.8768 102.437C67.8768 103.879 69.0465 105.047 70.4894 105.047H100.715C102.158 105.047 103.328 103.879 103.328 102.437C103.328 100.995 102.158 99.8264 100.715 99.8264Z" fill="#0960BD"/>
<path opacity="0.1" fill-rule="evenodd" clip-rule="evenodd" d="M7.95547 44.5175L297.683 37.4731C298.032 43.0842 297.683 49.1234 296.823 55.3549C295.922 61.8085 294.512 68.1809 292.606 74.4126H1.0166C2.0958 63.8054 4.43045 53.5695 7.95547 44.5175ZM54.6186 60.5406H59.833C61.2759 60.5406 62.4455 59.3719 62.4455 57.9302C62.4455 56.4884 61.2759 55.3197 59.833 55.3197H56.11C57.5529 55.3197 58.7226 54.1509 58.7226 52.7092C58.7226 51.2675 57.5529 50.0988 56.11 50.0988H25.8843C24.4414 50.0988 23.2717 51.2675 23.2717 52.7092C23.2717 54.1509 24.4414 55.3197 25.8843 55.3197H29.6181C28.1752 55.3197 27.0055 56.4884 27.0055 57.9302C27.0055 59.3719 28.1752 60.5406 29.6181 60.5406H24.3929C22.95 60.5406 21.7803 61.7094 21.7803 63.1511C21.7803 64.5928 22.95 65.7616 24.3929 65.7616H54.6186C56.0615 65.7616 57.2312 64.5928 57.2312 63.1511C57.2312 61.7094 56.0615 60.5406 54.6186 60.5406Z" fill="#0960BD"/>
<path fill-rule="evenodd" clip-rule="evenodd" d="M177.162 55.065C179.584 57.4222 196.344 73.1825 196.344 73.1825C196.344 73.1825 202.841 80.8283 194.833 84.9953C186.826 89.1623 176.21 97.8594 176.21 97.8594C176.21 97.8594 175.63 97.6535 174.817 97.285C174.597 97.2173 174.386 97.1414 174.185 97.0574L173.954 97.2958L173.233 98.0382C173.233 98.0382 171.145 99.8941 169.03 101.474C169.063 101.783 169.095 102.086 169.139 102.387C169.887 107.686 168.835 110.71 167.447 112.433V112.571V112.969C167.487 119.469 166.614 133.054 165.22 136.988C163.358 142.241 165.033 153.111 165.033 153.111C165.033 153.111 164.29 160.345 165.779 163.437C167.268 166.528 163.171 189.718 163.171 189.718C163.171 189.718 162.983 196.613 160.936 199.864C160.896 199.929 160.852 199.989 160.809 200.046L160.771 200.094C160.735 200.138 160.698 200.18 160.66 200.222L160.624 200.257C160.576 200.306 160.524 200.353 160.47 200.398L160.437 200.425C160.392 200.461 160.346 200.495 160.299 200.528L160.25 200.56C160.193 200.596 160.139 200.628 160.079 200.661C160.039 200.682 159.998 200.702 159.955 200.721C159.932 200.732 159.908 200.742 159.884 200.753L159.835 200.772L159.667 200.834C159.683 200.951 159.683 201.07 159.683 201.192C159.925 204.928 161.891 211.262 161.891 211.262C161.891 211.262 161.704 214.885 155.746 215.248C149.789 215.611 149.415 212.53 150.161 209.631C150.7 207.529 151.142 202.094 151.345 199.265L151.37 198.916C150.96 198.713 150.719 198.58 150.719 198.58C150.719 198.58 153.886 185.716 152.582 182.275C151.278 178.834 153.512 164.702 153.512 164.702C153.512 164.702 149.618 150.57 150.161 146.766C150.703 142.962 147.178 130.643 147.178 130.643C147.178 130.643 146.701 132.022 145.922 134.165L145.882 134.276L145.795 134.512L145.738 134.666L145.654 134.899L145.624 134.983L145.442 135.476L145.375 135.663L145.296 135.88L145.212 136.107L145.133 136.319L145.011 136.649L144.933 136.861L144.811 137.188L144.737 137.386L144.629 137.676L144.556 137.868L144.426 138.215L144.374 138.353L144.195 138.828L144.127 139.006L144 139.337L143.927 139.527L143.783 139.901L143.729 140.041L143.531 140.553L143.485 140.675L143.325 141.087L143.26 141.258L143.108 141.645L143.045 141.802L142.834 142.344L142.815 142.396L142.62 142.889L142.56 143.038L142.395 143.45L142.332 143.604L142.129 144.105L142.11 144.151L141.885 144.693L141.833 144.818L141.657 145.249L141.595 145.398L141.402 145.858L141.364 145.948L141.131 146.49L141.093 146.576L140.901 147.034L140.838 147.178L140.654 147.606L140.602 147.722L140.366 148.264V148.286L140.125 148.803L140.065 148.942L139.889 149.34L139.827 149.478L139.602 149.979L139.369 150.486L139.312 150.608L139.135 150.984L139.07 151.123L138.88 151.526L138.842 151.605L138.615 152.079L138.569 152.171L138.387 152.54L138.322 152.67L138.148 153.014L138.094 153.119L137.872 153.553L137.847 153.599L137.655 153.965L137.592 154.084L137.432 154.379L137.373 154.49L137.164 154.864L136.955 155.227L136.898 155.325L136.746 155.58L136.684 155.683L136.519 155.953L136.481 156.013L136.283 156.314L136.234 156.384L136.088 156.598L136.028 156.685L135.871 156.861L135.822 156.926C135.759 157.007 135.697 157.086 135.637 157.159L135.605 157.197L135.456 157.37L135.399 157.433L135.271 157.568L135.22 157.622C135.163 157.679 135.106 157.734 135.052 157.782C131.139 161.223 131.885 168.471 131.885 168.471C135.063 176.986 128.36 190.029 128.36 190.029C128.36 190.029 129.997 196.236 126.608 200.054C126.627 200.154 126.646 200.254 126.665 200.357C127.267 203.798 127.058 209.602 127.058 209.602C127.058 209.602 128.362 209.434 114.208 213.768C105.314 216.5 102.377 214.795 101.423 213.153C101.178 212.713 101.12 212.193 101.263 211.71C101.405 211.227 101.737 210.821 102.182 210.585C107.177 207.735 111.696 204.124 115.577 199.883L117.934 188.948L119.609 165.033C119.609 165.033 120.542 158.33 121.285 146.373C122.028 134.417 126.871 121.011 126.871 121.011L127.684 115.492L127.758 115.001C127.284 114.649 126.861 114.232 126.502 113.763C126.502 113.763 129.588 101.75 129.672 94.5513C116.76 96.735 119.425 85.3205 119.425 85.3205C119.425 85.3205 119.916 81.5409 120.634 76.6099L106.057 77.8237L93.085 63.8678L116.675 43.4067L126.792 54.8239C126.892 54.7336 126.989 54.6487 127.085 54.5692V54.5015L127.316 54.3877C128.001 53.8292 128.805 53.4353 129.667 53.2362L141.326 47.5249L141.399 47.6739C141.395 47.6169 141.39 47.5632 141.385 47.5111C141.376 47.422 141.367 47.3374 141.367 47.2485C141.305 46.4737 141.221 45.7611 141.128 45.119C141.108 44.977 141.086 44.8388 141.065 44.7034C141.055 44.6399 141.046 44.5771 141.036 44.5148C138.034 42.5665 136.217 39.2374 136.204 35.6606V35.2515C136.212 35.0104 136.234 34.7719 136.258 34.5335C136.106 34.5123 135.956 34.4769 135.811 34.4279C135.703 34.3978 135.608 34.333 135.54 34.2436C135.477 34.0814 135.496 33.899 135.591 33.7532C135.774 33.3223 135.888 32.865 135.928 32.3985C135.971 32.1639 135.92 31.9217 135.787 31.7239C135.724 31.6488 135.641 31.5916 135.558 31.5343C135.476 31.4779 135.394 31.4213 135.331 31.3473C135.206 31.1669 135.14 30.9518 135.144 30.7323C134.9 27.8495 134.737 24.7229 136.435 22.3062C137.346 21.0349 138.652 20.0997 140.149 19.6456C142.114 19.044 143.951 19.8487 145.839 20.676C147.259 21.2979 148.707 21.9326 150.261 21.9919C150.94 22.0204 151.767 21.6 152.6 21.1774C153.51 20.7152 154.426 20.2502 155.158 20.3663C156.706 20.6097 158.141 21.3239 159.269 22.4118C161.451 24.5549 160.82 28.1692 160.131 31.0574C159.828 32.3232 159.884 33.3997 159.943 34.5683C159.969 35.0656 159.995 35.5796 159.995 36.132C160.032 36.4192 159.982 36.7109 159.852 36.9692C159.675 37.1658 159.467 37.3316 159.236 37.4596C158.674 37.8723 158.437 38.5355 158.206 39.181C158.172 39.2771 158.138 39.3728 158.103 39.4673C157.802 40.2909 157.354 41.1281 156.56 41.5806C156.459 41.6378 156.352 41.6859 156.243 41.7242C156.147 41.8596 156.048 41.9924 155.947 42.1224C155.977 42.2633 156.012 42.4015 156.047 42.5343C156.283 43.4393 156.682 44.2933 157.227 45.054C157.249 45.0871 157.272 45.1165 157.296 45.1465C157.307 45.1605 157.319 45.1747 157.33 45.1894C157.33 45.1894 163.754 49.0476 170.033 50.237C171.855 50.568 173.532 51.446 174.841 52.754C174.958 52.8715 175.078 52.9928 175.201 53.1172C175.796 53.7182 176.464 54.3916 177.162 55.065ZM170.465 91.4815C172.506 87.8673 183.681 80.7904 183.681 80.7904V80.7931C183.681 80.7931 184.277 78.5904 181.837 77.336C179.396 76.0815 175.871 73.001 175.871 73.001C175.871 73.001 171.292 82.6165 169.581 92.3702L169.922 92.2402L170.193 92.1264C170.256 91.9006 170.347 91.6839 170.465 91.4815Z" fill="url(#paint0_linear)"/>
<path d="M115.347 212.647C106.767 215.356 103.934 213.665 103.014 212.037C102.528 211.131 102.853 210.003 103.747 209.493C108.623 206.629 113.015 203.014 116.762 198.78C117.717 197.697 118.218 197.033 118.218 197.033C118.218 197.033 124.864 195.776 126.48 197.033C126.884 197.347 127.166 198.225 127.359 199.363C127.939 202.771 127.738 208.52 127.738 208.52C127.738 208.52 128.997 208.339 115.347 212.647Z" fill="#011F3F"/>
<path d="M161.327 210.133C161.327 210.133 161.148 213.722 155.399 214.08C149.651 214.438 149.293 211.387 150.011 208.518C150.532 206.437 150.958 201.053 151.153 198.249C151.226 197.185 151.267 196.494 151.267 196.494C151.267 196.494 160.247 195.597 159.35 198.119C159.173 198.787 159.122 199.481 159.198 200.168C159.431 203.86 161.327 210.133 161.327 210.133Z" fill="#011F3F"/>
<path opacity="0.1" d="M127.35 199.363L127.191 199.547C123.777 203.316 116.594 199.547 116.594 199.547L116.754 198.783C117.708 197.699 118.21 197.035 118.21 197.035C118.21 197.035 124.856 195.778 126.472 197.035C126.887 197.347 127.169 198.225 127.35 199.363Z" fill="black"/>
<path opacity="0.1" d="M159.347 198.108C159.17 198.776 159.119 199.47 159.195 200.157C156.847 200.97 152.687 199.046 151.15 198.26C151.223 197.195 151.264 196.504 151.264 196.504C151.264 196.504 160.25 195.597 159.347 198.108Z" fill="black"/>
<path d="M165.098 162.754C166.535 165.805 162.585 188.764 162.585 188.764C162.585 188.764 162.406 195.583 160.429 198.813C158.452 202.042 150.551 197.556 150.551 197.556C150.551 197.556 153.604 184.822 152.346 181.402C151.088 177.983 153.243 164 153.243 164C153.243 164 149.472 150.001 150.011 146.232C150.551 142.464 147.137 130.247 147.137 130.247C147.137 130.247 139.233 153.759 135.461 157.167C131.689 160.576 132.408 167.755 132.408 167.755C135.461 176.19 128.994 189.113 128.994 189.113C128.994 189.113 130.621 195.394 127.199 199.162C123.777 202.931 116.602 199.162 116.602 199.162L118.945 188.059L120.572 164.369C120.572 164.369 121.469 157.728 122.199 145.883C122.928 134.037 127.587 120.756 127.587 120.756L128.367 115.289L129.024 110.704C129.024 110.704 165.486 109.447 166.384 109.268C166.609 109.222 166.722 110.593 166.733 112.753C166.774 119.193 165.92 132.648 164.586 136.546C162.791 141.751 164.407 152.532 164.407 152.532C164.407 152.532 163.661 159.703 165.098 162.754Z" fill="#011F3F"/>
<g opacity="0.05">
<path d="M145.163 130.269C145.163 130.269 137.259 153.78 133.487 157.189C129.715 160.597 130.434 167.777 130.434 167.777C133.487 176.211 127.02 189.135 127.02 189.135C127.02 189.135 128.647 195.415 125.225 199.184C124.359 200.116 123.179 200.695 121.911 200.81C123.809 201.007 125.813 200.72 127.199 199.184C130.613 195.415 128.994 189.135 128.994 189.135C128.994 189.135 135.461 176.214 132.408 167.777C132.408 167.777 131.689 160.597 135.461 157.189C138.359 154.569 143.693 140.09 146.011 133.517C145.534 131.599 145.163 130.269 145.163 130.269Z" fill="black"/>
<path d="M164.38 152.523C164.38 152.523 162.753 141.756 164.558 136.538C165.914 132.639 166.744 119.185 166.706 112.745C166.706 110.577 166.581 109.222 166.356 109.26C166.245 109.282 165.575 109.323 164.493 109.374C164.645 109.743 164.721 110.978 164.732 112.747C164.773 119.187 163.919 132.642 162.584 136.541C160.789 141.746 162.406 152.526 162.406 152.526C162.406 152.526 161.687 159.706 163.124 162.757C164.561 165.807 160.61 188.766 160.61 188.766C160.61 188.766 160.432 195.586 158.455 198.815C158.086 199.396 157.486 199.791 156.806 199.899C158.344 200.127 159.743 199.937 160.429 198.815C162.406 195.586 162.584 188.766 162.584 188.766C162.584 188.766 166.535 165.794 165.098 162.757C163.661 159.719 164.38 152.523 164.38 152.523Z" fill="black"/>
</g>
<path d="M159.71 47.7145L158.452 60.0963C158.452 60.0963 138.514 64.4042 140.67 57.4032C141.689 54.0896 141.754 50.5323 141.519 47.7064C141.456 46.9424 141.378 46.2325 141.288 45.5958C141.142 44.4961 140.936 43.4053 140.67 42.3283C140.67 42.3283 156.126 30.6618 155.399 38.5596C155.232 40.0522 155.329 41.5625 155.684 43.0219C155.91 43.9154 156.296 44.7608 156.823 45.5172C158.094 47.3108 159.71 47.7145 159.71 47.7145Z" fill="#FDC2CC"/>
<path opacity="0.1" d="M155.687 43.0246C155.543 43.2196 155.391 43.412 155.236 43.5962C151.769 47.703 145.773 48.5648 141.288 45.6012C141.142 44.5015 140.936 43.4107 140.67 42.3337C140.67 42.3337 156.126 30.6672 155.399 38.565C155.234 40.0569 155.331 41.5662 155.687 43.0246V43.0246Z" fill="black"/>
<path d="M157.734 36.2269C157.734 42.0746 152.989 46.8151 147.137 46.8151C141.284 46.8151 136.54 42.0746 136.54 36.2269C136.54 36.0914 136.54 35.9559 136.54 35.8205C136.766 30.0597 141.563 25.5383 147.332 25.649C153.101 25.7596 157.721 30.4616 157.725 36.2269H157.734Z" fill="#FDC2CC"/>
<path opacity="0.1" d="M166.706 112.758C165.798 113.976 164.445 114.787 162.942 115.015L154.689 117.9H154.67L152.167 118.776L151.117 116.196L149.832 113.032V118.776C149.832 118.776 134.062 119.859 128.34 115.283L128.997 110.699C128.997 110.699 165.459 109.442 166.356 109.263C166.581 109.228 166.695 110.596 166.706 112.758Z" fill="black"/>
<path opacity="0.1" d="M159.71 47.7145L158.452 60.0963C158.452 60.0963 138.514 64.4041 140.67 57.4031C141.689 54.0896 141.754 50.5322 141.519 47.7064C141.863 48.427 144.398 53.5261 147.676 54.412V54.412C148.085 54.5262 148.51 54.5666 148.932 54.5312C149.629 54.4487 150.294 54.1914 150.865 53.7834C153.815 51.8246 156.288 46.6687 156.831 45.5199C158.094 47.3108 159.71 47.7145 159.71 47.7145Z" fill="black"/>
<path d="M193.12 85.0441C185.397 89.1732 175.158 97.7781 175.158 97.7781C175.158 97.7781 167.615 95.085 169.591 91.4978C171.568 87.9106 182.336 80.9096 182.336 80.9096C182.336 80.9096 182.878 78.7557 180.541 77.4985C178.203 76.2414 174.792 73.1906 174.792 73.1906C174.792 73.1906 166.709 90.5983 168.325 102.265C169.941 113.931 162.937 114.457 162.937 114.457L154.683 117.342H154.664L152.162 118.217L151.112 115.638L149.827 112.474V118.217C149.827 118.217 131.505 119.475 127.196 113.552C127.196 113.552 131.147 97.7591 130.071 91.6576C128.994 85.5562 127.736 54.8672 127.736 54.8672L141.475 47.9584C141.475 47.9584 144.162 53.8187 147.688 54.7751V54.7751C148.096 54.8893 148.521 54.9297 148.943 54.8943C149.64 54.8118 150.305 54.5545 150.876 54.1466C154.203 51.9384 156.937 45.6527 156.937 45.6527C156.937 45.6527 163.133 49.4729 169.19 50.6515C170.956 50.9841 172.576 51.8548 173.827 53.1441C174.483 53.8296 175.253 54.618 176.067 55.4335C178.401 57.7663 194.568 73.3803 194.568 73.3803C194.568 73.3803 200.834 80.915 193.12 85.0441Z" fill="#D39999"/>
<path d="M175.345 94.7354L172.986 97.2307L172.292 97.9677C172.292 97.9677 166.007 103.712 164.388 103.53C162.769 103.348 160.077 92.4027 163.303 93.1206C165.267 93.5568 167.563 92.8687 169.06 92.2591V92.2591C169.609 92.0394 170.145 91.7879 170.665 91.5059L175.345 94.7354Z" fill="#FDC2CC"/>
<path opacity="0.1" d="M157.733 36.2269C157.738 38.7279 156.851 41.1489 155.233 43.0572C154.669 43.1115 154.122 42.8498 153.81 42.3771C153.512 41.8542 153.636 41.1986 153.438 40.635C153.24 40.0715 152.79 39.684 152.506 39.1828C151.784 37.9202 152.088 36.0074 150.767 35.3301C150.16 35.0212 149.425 35.1242 148.747 35.238C147.416 35.4574 146.076 35.8936 144.764 36.0752C143.267 36.2865 141.92 35.3138 140.442 35.2921C139.124 35.2705 137.801 36.0426 136.551 35.8205C136.777 30.0597 141.574 25.5383 147.343 25.649C153.112 25.7596 157.732 30.4616 157.736 36.2269H157.733Z" fill="black"/>
<path d="M148.747 34.52C149.425 34.4089 150.16 34.3032 150.768 34.6148C152.088 35.2895 151.784 37.2023 152.506 38.4648C152.79 38.9661 153.251 39.3752 153.441 39.917C153.631 40.4589 153.514 41.1363 153.813 41.6592C154.244 42.4151 155.412 42.5262 156.18 42.0764C156.947 41.6266 157.376 40.8003 157.666 39.9821C157.921 39.2614 158.135 38.4648 158.75 37.9934C158.974 37.8661 159.175 37.7022 159.344 37.5084C159.471 37.2518 159.52 36.9635 159.485 36.6794C159.485 34.8478 159.2 33.4281 159.615 31.6535C160.28 28.7924 160.887 25.2106 158.783 23.0892C157.706 22.0166 156.319 21.3079 154.819 21.0626C153.463 20.8404 151.467 22.7316 150.095 22.6882C146.605 22.55 143.661 19.3205 140.333 20.3636C138.879 20.8202 137.618 21.7477 136.749 22.9998C135.122 25.3949 135.268 28.489 135.504 31.3473C135.501 31.5644 135.564 31.7772 135.686 31.9569C135.808 32.1032 136.006 32.1818 136.125 32.3308C136.254 32.5277 136.302 32.766 136.261 32.9973C136.224 33.4629 136.116 33.92 135.938 34.352C135.847 34.4984 135.829 34.6783 135.889 34.8397C135.956 34.9302 136.052 34.9952 136.16 35.0239C137.516 35.5116 138.98 34.5715 140.431 34.5959C141.882 34.6202 143.259 35.5902 144.756 35.3789C146.077 35.1757 147.416 34.7395 148.747 34.52Z" fill="#865A61"/>
<path opacity="0.05" d="M154.691 117.361H154.672L152.078 118.326L151.118 115.657L147.05 104.327L147.688 54.7752V54.7752C148.096 54.8894 148.521 54.9297 148.943 54.8944C149.64 54.8118 150.305 54.5546 150.876 54.1466V54.1466L150.106 102.915L154.691 117.361Z" fill="black"/>
<path d="M149.653 57.2271C149.951 57.2271 150.193 56.9857 150.193 56.688C150.193 56.3902 149.951 56.1488 149.653 56.1488C149.355 56.1488 149.114 56.3902 149.114 56.688C149.114 56.9857 149.355 57.2271 149.653 57.2271Z" fill="white"/>
<path d="M148.574 75.5316C148.872 75.5316 149.114 75.2902 149.114 74.9924C149.114 74.6946 148.872 74.4532 148.574 74.4532C148.276 74.4532 148.035 74.6946 148.035 74.9924C148.035 75.2902 148.276 75.5316 148.574 75.5316Z" fill="white"/>
<path d="M147.676 94.5566C147.974 94.5566 148.216 94.3152 148.216 94.0174C148.216 93.7197 147.974 93.4783 147.676 93.4783C147.378 93.4783 147.137 93.7197 147.137 94.0174C147.137 94.3152 147.378 94.5566 147.676 94.5566Z" fill="white"/>
<path d="M148.756 104.066C149.054 104.066 149.296 103.825 149.296 103.527C149.296 103.23 149.054 102.988 148.756 102.988C148.458 102.988 148.216 103.23 148.216 103.527C148.216 103.825 148.458 104.066 148.756 104.066Z" fill="white"/>
<path opacity="0.05" d="M167.257 77.1463H155.76V65.6613L161.508 64.0438L167.257 65.6613V77.1463V77.1463Z" fill="black"/>
<path d="M149.114 65.6613C149.412 65.6613 149.653 65.4199 149.653 65.1222C149.653 64.8244 149.412 64.583 149.114 64.583C148.816 64.583 148.574 64.8244 148.574 65.1222C148.574 65.4199 148.816 65.6613 149.114 65.6613Z" fill="white"/>
<path d="M161.866 66.2005C162.164 66.2005 162.406 65.9591 162.406 65.6614C162.406 65.3636 162.164 65.1222 161.866 65.1222C161.568 65.1222 161.327 65.3636 161.327 65.6614C161.327 65.9591 161.568 66.2005 161.866 66.2005Z" fill="white"/>
<path d="M148.037 85.4017C148.335 85.4017 148.577 85.1603 148.577 84.8625C148.577 84.5648 148.335 84.3234 148.037 84.3234C147.739 84.3234 147.498 84.5648 147.498 84.8625C147.498 85.1603 147.739 85.4017 148.037 85.4017Z" fill="white"/>
<path d="M130.255 53.6372C130.255 53.6372 125.225 54.3552 123.609 63.5074C121.993 72.6596 120.377 85.4017 120.377 85.4017C120.377 85.4017 117.681 97.2471 131.147 94.3697L131.865 90.2407C131.865 90.2407 130.51 94.9956 130.878 85.4857C131.247 75.9759 131.329 69.7714 131.329 69.7714L130.255 53.6372Z" fill="#D39999"/>
<path opacity="0.05" d="M130.255 53.6372C130.255 53.6372 125.225 54.3552 123.609 63.5074C121.993 72.6596 120.377 85.4017 120.377 85.4017C120.377 85.4017 117.681 97.2471 131.147 94.3697L131.865 90.2407C131.865 90.2407 129.799 94.8168 130.16 85.3042C130.52 75.7916 131.329 69.7796 131.329 69.7796L130.255 53.6372Z" fill="black"/>
<path opacity="0.1" d="M175.345 94.7354L172.986 97.2307C169.632 95.8761 168.981 92.3241 168.981 92.3241L169.068 92.2591V92.2591C169.617 92.0394 170.153 91.7879 170.673 91.5059L175.345 94.7354Z" fill="black"/>
<path d="M172.015 90.1593L169.333 92.1453C169.333 92.1453 170.22 96.9788 175.247 97.5179L177.403 93.7492L172.015 90.1593Z" fill="#D39999"/>
<path d="M94.9722 64.1495L117.717 43.8807L128.126 55.9834L145.99 55.0623L151.405 66.2519L134.398 88.447L126.432 76.3551L107.483 77.9753L94.9722 64.1495V64.1495Z" fill="#F2F5FB"/>
<path d="M149.52 66.279L143.536 74.0468L137.15 82.3374L134.2 86.1712L127.375 75.5613L120.217 76.1899L108.562 77.2113L99.88 67.6175L96.8945 64.3202L109.007 53.5261L118.107 45.4197L122.795 50.8709L127.812 56.7042L132.823 56.4468L144.471 55.8453L149.019 65.2414L149.52 66.279V66.279Z" fill="#DDE0ED"/>
<path d="M111.898 58.1104L99.88 67.6175L96.8945 64.3202L109.007 53.5261L111.898 58.1104V58.1104Z" fill="#ABB1D1"/>
<path d="M125.607 65.1141L124.661 59.1562L118.337 51.7407L122.795 50.871L127.812 56.7042L132.823 56.4468L134.661 63.5426L125.732 65.8917L125.607 65.1141V65.1141Z" fill="#ABB1D1"/>
<path d="M149.521 66.279L143.536 74.0468L140.429 69.365L149.019 65.2413L149.521 66.279V66.279Z" fill="#ABB1D1"/>
<path d="M137.15 82.3374L134.2 86.1712L127.375 75.5613L120.217 76.1899L118.918 67.2192L125.607 65.114L126.41 71.2426L130.936 71.9443L137.15 82.3374V82.3374Z" fill="#ABB1D1"/>
<path d="M124.335 67.547C124.271 67.5599 124.204 67.5359 124.162 67.4847C123.33 66.4651 122.311 65.6128 121.16 64.9731C121.073 64.9252 121.042 64.8161 121.09 64.7293C121.138 64.6425 121.247 64.611 121.334 64.6588C122.524 65.3207 123.578 66.2024 124.439 67.2571C124.479 67.306 124.491 67.3727 124.469 67.4323C124.447 67.492 124.395 67.5356 124.333 67.547H124.335Z" fill="#D7666F"/>
<path d="M122.199 68.0456C122.128 68.06 122.056 68.0311 122.016 67.972C121.975 67.913 121.973 67.8353 122.012 67.7747L124.338 63.9355C124.39 63.851 124.5 63.8243 124.585 63.8759C124.67 63.9275 124.696 64.0379 124.645 64.1225L122.318 67.9616C122.292 68.0053 122.249 68.0358 122.199 68.0456V68.0456Z" fill="#D7666F"/>
<path opacity="0.1" d="M108.568 76.9729L127.771 56.6635L144.436 55.8534L127.421 75.4908L108.568 76.9729V76.9729Z" fill="white"/>
<path d="M125.225 86.8268C125.225 86.8268 129.715 75.8187 131.871 76.9621C134.026 78.1054 140.312 84.9682 136.003 87.9702C131.694 90.9722 128.638 92.4027 128.638 92.4027L125.225 91.9746V86.8268Z" fill="#FDC2CC"/>
<path d="M122.801 86.9271C122.801 86.9271 126.92 83.6976 130.247 93.4784L127.109 93.9281L123.517 91.7742L122.801 86.9271Z" fill="#D39999"/>
<path opacity="0.05" d="M122.801 86.9271C122.801 86.9271 126.92 83.6976 130.247 93.4784L127.109 93.9281L123.517 91.7742L122.801 86.9271Z" fill="black"/>
<defs>
<linearGradient id="paint0_linear" x1="198.833" y1="215.248" x2="198.833" y2="19.4478" gradientUnits="userSpaceOnUse">
<stop stop-color="#808080" stop-opacity="0.25"/>
<stop offset="0.54" stop-color="#808080" stop-opacity="0.12"/>
<stop offset="1" stop-color="#808080" stop-opacity="0.1"/>
</linearGradient>
</defs>
</svg>
