<svg width="120" height="120" viewBox="0 0 120 120" fill="none" xmlns="http://www.w3.org/2000/svg">
<path fill-rule="evenodd" clip-rule="evenodd" d="M103.08 0H16.92C7.59 0 0 7.59 0 16.92V103.084C0 112.41 7.59 120 16.92 120H103.084C112.41 120 120 112.41 120 103.08V16.92C120 7.59 112.41 0 103.08 0ZM28.5338 36.87L33.8363 31.5675L40.7625 38.4937L47.6888 31.5675L52.9912 36.87L46.065 43.7962L52.9912 50.7225L47.6888 56.025L40.7625 49.0987L33.8363 56.025L28.5338 50.7225L35.46 43.7962L28.5338 36.87ZM33.4875 94.5975C33.4875 79.665 45.5925 67.56 60.525 67.56C75.4575 67.56 87.5625 79.665 87.5625 94.5975H33.4875ZM91.4662 50.7188L86.1637 56.0212L79.2375 49.095L72.3112 56.0212L67.0088 50.7188L73.935 43.7925L67.0088 36.8662L72.3112 31.5637L79.2375 38.49L86.1637 31.5637L91.4662 36.8662L84.54 43.7925L91.4662 50.7188Z" fill="url(#paint0_linear)"/>
<defs>
<linearGradient id="paint0_linear" x1="23.1968" y1="240.107" x2="165.795" y2="96.9489" gradientUnits="userSpaceOnUse">
<stop stop-color="#ED405C"/>
<stop offset="1" stop-color="#F48448"/>
</linearGradient>
</defs>
</svg>
