<svg width="264" height="220" viewBox="0 0 264 220" fill="none" xmlns="http://www.w3.org/2000/svg">
<path opacity="0.1" d="M153.426 29.4031C136.526 28.8145 120.43 23.3499 105.06 17.3698C89.6897 11.3898 74.466 4.76364 57.9705 1.59575C47.3609 -0.442063 35.2263 -0.729816 26.6796 4.96769C18.4515 10.4611 15.7932 19.9177 14.3648 28.7021C13.289 35.3099 12.6571 42.2657 15.6026 48.4497C17.6498 52.7451 21.2795 56.3551 23.7915 60.4699C32.5315 74.7843 26.3532 92.4366 16.8847 106.414C12.4455 112.972 7.28827 119.232 3.85967 126.206C0.43106 133.18 -1.15398 141.182 1.84637 148.303C4.818 155.366 11.9024 160.66 19.5769 164.388C35.1636 171.961 53.5235 174.127 71.4395 175.354C111.086 178.072 150.942 176.895 190.694 175.718C205.406 175.281 220.18 174.839 234.652 172.56C242.69 171.294 250.986 169.288 256.822 164.438C264.227 158.282 266.063 147.86 261.099 140.141C252.774 127.195 229.764 123.98 223.938 110.086C220.737 102.437 224.024 93.9199 228.68 86.8255C238.666 71.6112 255.401 58.2621 256.281 40.8714C256.887 28.927 248.842 16.9644 236.402 11.3113C223.364 5.38885 205.28 6.13178 195.666 15.9389C185.756 26.0364 168.349 29.9211 153.426 29.4031Z" fill="#FF5656"/>
<path opacity="0.1" d="M126.514 215.32C170.351 215.32 205.889 210.504 205.889 204.563C205.889 198.623 170.351 193.807 126.514 193.807C82.676 193.807 47.1387 198.623 47.1387 204.563C47.1387 210.504 82.676 215.32 126.514 215.32Z" fill="#FF5656"/>
<rect x="168.114" y="76.0765" width="2.31359" height="19.1015" rx="0.599049" fill="#3A3768"/>
<rect x="91.23" y="61.1108" width="1.2978" height="6.2887" rx="0.599049" fill="#3A3768"/>
<rect x="91.1831" y="72.6262" width="1.46231" height="10.9451" rx="0.599049" fill="#3A3768"/>
<rect x="91.2065" y="87.401" width="1.39181" height="11.0392" rx="0.599049" fill="#3A3768"/>
<rect x="91.9639" y="40.3298" width="77.3982" height="157.581" rx="10.1995" fill="#3A3768"/>
<path d="M158.699 44H149.821V45.0699C149.821 46.4149 149.287 47.7048 148.338 48.6556C147.388 49.6065 146.1 50.1403 144.758 50.1396H116.522C115.179 50.1403 113.891 49.6065 112.942 48.6556C111.992 47.7048 111.459 46.4149 111.459 45.0699V44H103.147C99.7521 44 97 46.757 97 50.1579V187.225C97 188.858 97.6476 190.424 98.8004 191.579C99.9532 192.734 101.517 193.383 103.147 193.383H158.699C162.094 193.383 164.846 190.626 164.846 187.225V50.1684C164.849 48.5334 164.203 46.9644 163.049 45.8073C161.896 44.6502 160.331 44 158.699 44Z" fill="#FF5656"/>
<rect x="123.197" y="45.0359" width="10.8081" height="2.19738" rx="1.01237" fill="#E6E8EC"/>
<path d="M136.886 47.3824C137.574 47.3824 138.131 46.8238 138.131 46.1346C138.131 45.4455 137.574 44.8868 136.886 44.8868C136.198 44.8868 135.64 45.4455 135.64 46.1346C135.64 46.8238 136.198 47.3824 136.886 47.3824Z" fill="#E6E8EC"/>
<path d="M196.159 33.4186C196.159 33.4186 174.172 32.0897 176.762 47.5237C176.762 47.5237 176.24 50.2521 178.716 51.4894C178.716 51.4894 178.755 50.3463 180.972 50.7361C181.761 50.8671 182.563 50.9057 183.361 50.8512C184.438 50.7802 185.463 50.3607 186.281 49.6557V49.6557C186.281 49.6557 192.461 47.0973 194.864 36.9789C194.864 36.9789 196.642 34.771 196.572 34.2034L192.861 35.7912C192.861 35.7912 194.13 38.4726 193.122 40.7013C193.122 40.7013 193.002 35.888 192.289 35.9927C192.145 36.0136 190.362 36.9213 190.362 36.9213C190.362 36.9213 192.542 41.5907 190.897 44.9862C190.897 44.9862 191.521 39.2312 189.68 37.2588L187.069 38.7865C187.069 38.7865 189.618 43.6102 187.889 47.5472C187.889 47.5472 188.333 41.5097 186.518 39.1579L184.152 41.0074C184.152 41.0074 186.547 45.7605 185.087 49.0252C185.087 49.0252 184.897 41.9988 183.641 41.4678C183.641 41.4678 181.57 43.299 181.254 44.0471C181.254 44.0471 182.894 47.5001 181.875 49.3208C181.875 49.3208 181.251 44.6383 180.739 44.6122C180.739 44.6122 178.677 47.7146 178.462 49.844C178.462 49.844 178.551 46.6814 180.241 44.3192C180.241 44.3192 178.246 44.6619 177.081 45.9567C177.081 45.9567 177.402 43.7646 180.75 43.571C180.75 43.571 182.455 41.2167 182.909 41.0754C182.909 41.0754 179.583 40.7955 177.564 41.6928C177.564 41.6928 179.34 39.6236 183.52 40.5653L185.858 38.6531C185.858 38.6531 181.476 38.054 179.617 38.7158C179.617 38.7158 181.755 36.8847 186.487 38.2188L189.03 36.6963C189.03 36.6963 185.293 35.8906 183.069 36.1731C183.069 36.1731 185.419 34.9044 189.777 36.2804L191.605 35.4616C191.605 35.4616 188.868 34.9227 188.067 34.8364C187.265 34.7501 187.223 34.5303 187.223 34.5303C188.957 34.2407 190.737 34.4391 192.365 35.1032C192.365 35.1032 196.224 33.6619 196.159 33.4186Z" fill="#FF5656"/>
<path d="M173.605 26.5544C173.605 26.5544 163.682 25.9553 164.842 32.9294C164.842 32.9294 164.609 34.1615 165.724 34.7213C165.724 34.7213 165.743 34.1981 166.745 34.3786C167.102 34.4387 167.464 34.4562 167.824 34.431C168.311 34.3987 168.774 34.2076 169.143 33.8868V33.8868C169.143 33.8868 171.937 32.7306 173.023 28.1579C173.023 28.1579 173.825 27.1613 173.793 26.9049L172.117 27.6217C172.117 27.6217 172.689 28.8329 172.24 29.84C172.24 29.84 172.185 27.6662 171.864 27.7159C171.798 27.7159 170.991 28.137 170.991 28.137C170.991 28.137 171.978 30.2481 171.234 31.781C171.234 31.781 171.516 29.1808 170.683 28.2887L169.503 28.9898C169.503 28.9898 170.654 31.1689 169.874 32.9477C169.874 32.9477 170.075 30.2193 169.255 29.1572L168.187 29.9943C168.187 29.9943 169.268 32.142 168.61 33.6174C168.61 33.6174 168.521 30.4417 167.954 30.201C167.954 30.201 167.02 31.0276 166.876 31.3677C166.876 31.3677 167.618 32.9373 167.158 33.7508C167.158 33.7508 166.876 31.6345 166.636 31.6241C166.636 31.6241 165.704 33.0262 165.607 33.9784C165.654 33.0906 165.931 32.2303 166.411 31.4828C165.873 31.5849 165.377 31.8422 164.983 32.2231C164.983 32.2231 165.129 31.2317 166.641 31.1453C166.641 31.1453 167.424 30.0807 167.618 30.0153C167.618 30.0153 166.113 29.8897 165.202 30.2952C165.202 30.2952 166.004 29.3613 167.892 29.7851L168.936 28.9218C168.936 28.9218 166.954 28.6602 166.116 28.9506C166.116 28.9506 167.082 28.1239 169.221 28.7256L170.37 28.0376C170.37 28.0376 168.68 27.674 167.675 27.8048C167.675 27.8048 168.738 27.2319 170.707 27.8519L171.529 27.483C171.529 27.483 170.292 27.2398 169.929 27.2005C169.566 27.1613 169.547 27.0619 169.547 27.0619C170.331 26.9312 171.136 27.0218 171.871 27.3235C171.871 27.3235 173.637 26.6642 173.605 26.5544Z" fill="#FF5656"/>
<path opacity="0.1" d="M225.92 203.752C229.804 203.752 232.952 203.22 232.952 202.562C232.952 201.905 229.804 201.372 225.92 201.372C222.036 201.372 218.888 201.905 218.888 202.562C218.888 203.22 222.036 203.752 225.92 203.752Z" fill="#FF5656"/>
<path opacity="0.1" d="M24.0473 213.52C27.9311 213.52 31.0795 212.987 31.0795 212.33C31.0795 211.673 27.9311 211.14 24.0473 211.14C20.1635 211.14 17.0151 211.673 17.0151 212.33C17.0151 212.987 20.1635 213.52 24.0473 213.52Z" fill="#FF5656"/>
<path opacity="0.1" d="M51.249 219.906C55.1327 219.906 58.2811 219.373 58.2811 218.716C58.2811 218.058 55.1327 217.525 51.249 217.525C47.3652 217.525 44.2168 218.058 44.2168 218.716C44.2168 219.373 47.3652 219.906 51.249 219.906Z" fill="#FF5656"/>
<path d="M73.959 116.592C74.0355 116.666 74.1514 116.681 74.2441 116.629C74.1478 116.63 74.0518 116.618 73.959 116.592V116.592Z" fill="url(#paint0_linear)"/>
<path fill-rule="evenodd" clip-rule="evenodd" d="M105.25 64.5351C104.699 64.3729 103.916 64.1087 102.968 63.7765C103.951 62.4895 104.67 61.0197 105.083 59.4524L105.002 59.4838C105.015 59.4354 105.029 59.3876 105.042 59.3399C105.056 59.2921 105.07 59.2444 105.083 59.196C103.271 59.9442 101.263 58.6728 99.9857 57.0483C99.4311 56.3429 98.9534 55.5624 98.476 54.7823C97.854 53.7662 97.2325 52.7508 96.4422 51.9028C95.8588 51.3091 95.2312 50.7608 94.5647 50.2626C94.1521 49.9382 93.7055 49.6008 93.2016 49.5851C92.7218 49.5712 92.3027 49.8458 91.8787 50.1236C91.5827 50.3176 91.2842 50.5131 90.9611 50.6131C90.4428 50.7318 89.9025 50.7119 89.3943 50.5556C88.6182 50.3745 87.8528 50.1352 87.0882 49.8961C85.8538 49.5102 84.6214 49.1249 83.3492 48.986C82.2418 48.8464 81.1172 48.9747 80.0695 49.3601C79.395 49.6202 78.96 50.0451 78.5115 50.4832C78.2655 50.7236 78.0153 50.9679 77.7193 51.1913C76.9894 51.7433 75.6766 51.8405 74.6354 51.9176C74.384 51.9362 74.1485 51.9537 73.9408 51.976C72.646 52.125 71.3422 52.1801 70.0395 52.1408C69.2905 52.073 68.5358 52.1011 67.7938 52.2246C66.2428 52.5699 64.9972 53.8203 63.8352 55.0236C63.5166 55.2984 63.2881 55.6631 63.1797 56.07C63.1654 56.1846 63.1654 56.3006 63.1797 56.4153C63.1677 56.7281 63.2211 57.0399 63.3364 57.3309C63.6875 58.4124 64.1885 59.4392 64.8248 60.381C64.9259 60.5278 65.0303 60.6727 65.1348 60.8178C65.5221 61.355 65.9105 61.8939 66.1305 62.5366C66.2588 62.9384 66.3265 63.3572 66.3315 63.7791C66.3169 64.2274 66.2706 64.6741 66.1931 65.1159C65.9879 66.334 65.6508 67.526 65.1878 68.6709C65.1582 68.7441 65.1281 68.8173 65.098 68.8906C64.8786 69.4245 64.6577 69.9623 64.6003 70.5465C64.5925 70.679 64.5925 70.8117 64.6003 70.9442C64.5569 72.0767 65.161 73.0348 65.7756 74.0096C66.2726 74.7979 66.7765 75.5971 66.9504 76.5083C66.9813 76.6768 67.0005 76.8472 67.0079 77.0184C66.9635 78.2897 66.2506 79.5323 65.2009 80.0241C65.265 80.0498 65.3304 80.0729 65.3962 80.0962L65.3967 80.0963C65.4245 80.1062 65.4524 80.116 65.4803 80.1261C65.39 80.1835 65.2968 80.2359 65.2009 80.2831C65.3915 80.3563 65.5873 80.4191 65.7858 80.4766C64.5851 81.5303 63.5769 82.7856 62.8063 84.186C59.2915 90.8645 35.3357 103.965 35.3357 103.965C35.3357 103.965 35.4715 104.041 35.6908 104.172C35.602 104.227 35.508 104.289 35.4036 104.36C33.3302 105.762 28.4628 109.854 32.8628 115.012C32.8628 115.012 36.2966 109.506 38.7016 107.164C38.8113 107.06 38.9158 106.963 39.0176 106.871C39.1263 107.038 39.1603 107.243 39.1116 107.436L54.8654 98.4455C54.8654 98.4455 60.464 94.464 62.0255 93.5641C62.0738 93.5365 62.1287 93.5044 62.19 93.4686C62.8115 93.1054 64.0814 92.3634 65.5743 92.0181L65.3915 92.0992C65.98 91.9344 66.5874 91.8464 67.1985 91.8376C69.9873 91.8821 73.006 93.9565 74.0035 102.173C75.3378 113.176 74.719 115.159 74.2907 115.431C74.2376 115.427 74.1851 115.417 74.134 115.402C74.1467 115.414 74.1608 115.424 74.1758 115.433C74.1173 115.43 74.0595 115.419 74.0035 115.402C74.0646 115.46 74.1519 115.482 74.2333 115.46C74.292 115.477 74.3552 115.469 74.4082 115.439H74.6197C74.6197 115.505 74.6128 115.573 74.6058 115.642C74.6023 115.676 74.5988 115.711 74.5962 115.745C74.5753 115.745 74.4709 115.805 74.5962 115.813C74.5649 116.433 74.5675 117.121 74.5962 117.814C73.2096 117.892 71.8257 117.976 70.6114 118.052L70.7211 117.469L70.7707 117.207C71.8335 117.121 72.8441 116.804 72.9616 115.925C73.2227 114 70.6114 112.972 68.4049 112.844C66.1984 112.715 52.9122 113.615 52.9122 113.615C52.9122 113.615 50.9198 116.231 57.2365 117.045C57.4245 117.144 57.6203 117.254 57.8188 117.369C60.2917 118.803 63.6498 121.44 65.2557 122.74L65.4803 122.92L64.7595 123.504C68.1395 124.28 71.4066 135.672 73.5761 143.237C73.9208 144.439 74.2378 145.544 74.5231 146.495C76.6043 153.43 81.1636 153.173 84.9395 152.148C88.4778 151.183 88.9295 140.748 88.9713 139.437V139.304L95.2619 147.18L95.7397 147.779C95.9251 147.876 96.1053 147.968 96.2829 148.054C101.048 150.359 106.313 145.943 104.814 140.92C103.302 135.845 100.952 128.346 99.3851 125.175C98.0794 122.52 96.3795 118.112 95.3506 115.344C95.484 115.289 95.6139 115.227 95.7397 115.156C95.7397 115.156 95.731 115.11 95.7148 115.023C95.7043 114.967 95.6908 114.895 95.6744 114.806L95.7397 114.772C95.7397 114.772 94.2252 106.78 94.1416 101.106V100.808V100.622C95.2801 100.36 96.0009 100.256 96.0009 100.256L96.0217 100.01L95.8886 100.039L96.5205 92.6773C96.5205 92.6773 98.8445 87.6574 97.0663 85.5646C96.5248 84.9503 96.1633 84.198 96.0217 83.3908C95.7241 81.4655 96.0217 78.2609 100.166 75.5953C106.545 71.4857 109.021 68.1451 109.021 68.1451C109.021 68.1451 109.156 65.6914 105.25 64.5351ZM92.5801 69.6414V66.2407C93.1377 66.2136 93.7012 66.2301 94.2655 66.2466C94.8983 66.2651 95.5321 66.2836 96.1601 66.2407C96.7445 66.1995 97.3234 66.1014 97.8888 65.9477L98.176 66.1492C96.4377 67.506 94.5621 68.6765 92.5801 69.6414ZM75.894 123.972C75.4318 123.629 74.9618 123.286 74.4944 122.957C75.2693 124.212 75.9249 125.537 76.4528 126.915C76.4346 126.834 76.1813 125.649 75.894 123.972Z" fill="url(#paint1_linear)"/>
<path d="M84.7203 120.809L84.4383 122.342L84.2215 123.514L83.8272 125.659L80.0043 128.34C80.0043 128.34 79.6596 128.045 79.0904 127.579C77.5236 126.287 74.2308 123.655 71.8127 122.243C71.1908 121.845 70.5179 121.535 69.8125 121.319L84.7203 120.809Z" fill="#FFBDC6"/>
<path opacity="0.1" d="M84.7203 120.809L84.4383 122.342C83.5952 122.388 82.7496 122.344 81.9158 122.211L72.9956 122.339C72.5752 122.313 72.1809 122.282 71.8127 122.243C71.1908 121.845 70.5179 121.535 69.8125 121.319L84.7203 120.809Z" fill="black"/>
<path d="M81.9156 121.95C81.9156 121.95 86.3731 122.716 86.6342 120.809C86.8953 118.902 84.3389 117.871 82.1741 117.743C80.0094 117.615 67.0105 118.51 67.0105 118.51C67.0105 118.51 64.7178 121.573 72.9981 122.086L81.9156 121.95Z" fill="#474463"/>
<path opacity="0.1" d="M84.7203 120.809L84.4383 122.342L84.2215 123.514L83.8272 125.659L80.0043 128.34C80.0043 128.34 79.6596 128.045 79.0904 127.579C77.5236 126.287 74.2308 123.655 71.8127 122.243C71.1908 121.845 70.5179 121.535 69.8125 121.319L84.7203 120.809Z" fill="black"/>
<path opacity="0.1" d="M84.7203 120.809L84.4383 122.342C83.5952 122.388 82.7496 122.344 81.9158 122.211L72.9956 122.339C72.5752 122.313 72.1809 122.282 71.8127 122.243C71.1908 121.845 70.5179 121.535 69.8125 121.319L84.7203 120.809Z" fill="black"/>
<path opacity="0.1" d="M81.9158 121.944C81.9158 121.944 86.3759 122.708 86.6318 120.793C86.8877 118.878 84.3365 117.858 82.1717 117.73C80.007 117.602 67.008 118.497 67.008 118.497C67.008 118.497 64.7153 121.56 72.9957 122.07L81.9158 121.944Z" fill="black"/>
<rect x="68.3447" y="59.0208" width="23.3187" height="27.7001" fill="#474463"/>
<rect opacity="0.1" x="68.3447" y="59.1462" width="23.3187" height="27.7001" fill="black"/>
<path d="M41.0154 106.44C40.6315 106.537 40.1406 106.908 39.5948 107.447C37.2447 109.778 33.8788 115.248 33.8788 115.248C29.5754 110.112 34.3383 106.055 36.3673 104.661C36.8608 104.323 37.1925 104.138 37.1925 104.138L41.0154 106.44Z" fill="#FFBDC6"/>
<path d="M84.4641 67.7632C84.4641 67.7632 85.6105 75.8046 89.5614 77.7194C93.5122 79.6343 84.4641 83.2129 84.4641 83.2129L72.105 78.6141C72.105 78.6141 79.1136 76.3147 77.7114 69.5499L84.4641 67.7632Z" fill="#FFBDC6"/>
<path d="M71.2122 116.142L70.9328 117.67L70.7056 118.847L70.3113 120.992L66.4884 123.671C66.4884 123.671 66.1437 123.378 65.5744 122.912C64.0077 121.62 60.7148 118.988 58.2942 117.576C57.6725 117.178 56.9996 116.867 56.2939 116.652L71.2122 116.142Z" fill="#FFBDC6"/>
<path opacity="0.1" d="M71.212 116.142L70.9326 117.67C70.0895 117.716 69.2439 117.672 68.4101 117.539L59.49 117.667C59.0695 117.641 58.6726 117.61 58.3044 117.571C57.6828 117.173 57.0098 116.862 56.3042 116.647L71.212 116.142Z" fill="black"/>
<path d="M68.4101 117.291C68.4101 117.291 72.8701 118.054 73.1234 116.142C73.3767 114.23 70.8307 113.204 68.6634 113.076C66.496 112.948 53.5023 113.843 53.5023 113.843C53.5023 113.843 51.207 116.906 59.49 117.419L68.4101 117.291Z" fill="#474463"/>
<path opacity="0.1" d="M70.7054 118.847L70.3111 120.992L66.4882 123.671C66.4882 123.671 66.1435 123.378 65.5742 122.912L70.6296 118.758L70.7054 118.847Z" fill="black"/>
<path d="M95.9539 148.07C95.779 147.983 95.604 147.894 95.4317 147.808L94.9617 147.214L88.7964 139.382C88.7964 139.382 88.7964 139.429 88.7964 139.518C88.7546 140.826 88.3107 151.19 84.8482 152.148C81.1532 153.168 76.6958 153.424 74.6642 146.532C72.6326 139.639 68.9194 124.576 65.1069 123.681L70.7786 119.022C70.7786 119.022 74.5336 123.422 76.0638 127.634C76.0064 127.372 73.4134 115.234 75.5416 113.087H94.1469C94.1469 113.087 97.0193 121.283 98.9882 125.342C100.521 128.495 102.822 135.947 104.302 140.991C105.77 145.972 100.618 150.369 95.9539 148.07Z" fill="#3B4A6B"/>
<path opacity="0.1" d="M95.4241 115.376C92.5517 117.079 79.9418 116.385 75.8395 116.108L74.7219 116.027C74.6018 116.027 74.7402 115.959 74.7402 115.959L74.8551 114.8L77.9129 107.015L94.2856 97.5037C93.9539 98.5056 93.8443 100.039 93.8704 101.794C93.9461 107.434 95.4241 115.376 95.4241 115.376Z" fill="black"/>
<path d="M95.4237 114.991C92.5513 116.694 79.9415 116.001 75.8392 115.724L74.7215 115.645L74.5361 115.629L74.7398 115.577L75.7478 115.316L77.9125 106.636L94.2852 97.127C93.9536 98.1289 93.8439 99.6618 93.87 101.417C93.9457 107.052 95.4237 114.991 95.4237 114.991Z" fill="#F2F1F2"/>
<path opacity="0.1" d="M93.8599 101.412C90.5305 102.181 83.2033 104.438 80.3883 109.887C78.5108 113.516 76.931 115.072 75.8291 115.724L74.7114 115.645C74.7187 115.623 74.7248 115.6 74.7297 115.577L75.7377 115.316L77.9024 106.636L94.2751 97.127C93.9461 98.1236 93.8338 99.6566 93.8599 101.412Z" fill="black"/>
<path opacity="0.1" d="M37.1924 104.143L41.0153 106.44C40.6314 106.537 40.1405 106.908 39.5947 107.447C39.2761 106.516 37.2759 105.215 36.3672 104.661C36.8607 104.329 37.1924 104.143 37.1924 104.143Z" fill="black"/>
<path opacity="0.1" d="M74.0301 115.794C73.9441 115.839 73.839 115.824 73.7686 115.758C73.8535 115.783 73.9416 115.795 74.0301 115.794V115.794Z" fill="black"/>
<path d="M82.681 77.2092C82.681 77.2092 79.2393 77.5912 76.8187 75.038C76.8187 75.038 66.6347 77.9757 63.1852 84.6123C59.7357 91.2489 36.2891 104.271 36.2891 104.271C36.2891 104.271 40.3679 106.568 39.984 107.716L55.4036 98.7802C55.4036 98.7802 60.8873 94.8249 62.4097 93.9303C63.932 93.0356 72.3508 87.5474 74.1343 102.482C75.9178 117.416 74.1343 115.629 74.1343 115.629C74.1343 115.629 76.6829 116.524 80.3778 109.375C84.0728 102.225 95.5389 100.567 95.5389 100.567L96.1761 93.0382C96.1761 93.0382 98.4505 88.047 96.6983 85.9752C96.1675 85.3618 95.8144 84.6146 95.6773 83.8145C95.3875 81.9022 95.6773 78.716 99.7352 76.0687C105.979 71.9826 108.399 68.6656 108.399 68.6656C108.399 68.6656 108.527 66.238 104.704 65.0896C100.882 63.9412 85.3367 57.6865 85.3367 57.6865L84.8144 59.8577L97.0796 68.5296C97.0796 68.5296 90.964 73.4998 86.1122 73.3795C86.1122 73.3795 87.0131 77.0811 82.681 77.2092Z" fill="#FF748E"/>
<path opacity="0.1" d="M85.0416 71.2632C84.7402 70.24 84.5047 69.1985 84.3365 68.145L77.5838 69.9317C77.8815 71.2231 77.8283 72.5708 77.4297 73.8347C80.2523 74.5894 83.2516 73.5762 85.0416 71.2632V71.2632Z" fill="black"/>
<path d="M79.4324 73.6987C83.443 73.6987 86.6943 70.4417 86.6943 66.4238C86.6943 62.406 83.443 59.1489 79.4324 59.1489C75.4217 59.1489 72.1704 62.406 72.1704 66.4238C72.1704 70.4417 75.4217 73.6987 79.4324 73.6987Z" fill="#FFBDC6"/>
<path opacity="0.1" d="M83.2945 49.878C85.3104 50.1056 87.2244 50.9741 89.209 51.4476C89.7048 51.6029 90.2328 51.6237 90.7392 51.5078C91.5096 51.2671 92.1363 50.4614 92.9353 50.4849C93.4262 50.4849 93.8623 50.8355 94.2671 51.1572C94.9168 51.6541 95.5278 52.1998 96.095 52.7896C97.4633 54.278 98.3119 56.2818 99.5601 57.9011C100.808 59.5204 102.777 60.7786 104.55 60.0357C103.344 64.7444 99.393 68.3308 95.1183 68.6238C93.4132 68.7389 91.6662 68.3831 90.0159 68.8854C89.6046 69.053 89.1708 69.1588 88.7285 69.1993C87.778 69.1993 87.0129 68.3256 86.4202 67.4754C85.031 65.4768 83.9316 63.2062 82.3675 61.3829C81.8452 60.7812 81.242 60.2084 80.5109 60.0985C79.7797 59.9886 79.1086 60.3365 78.4584 60.674C77.3852 61.2312 76.2884 61.8093 75.4554 62.7667C74.6224 63.7242 74.0976 65.1472 74.4423 66.429C74.6277 67.1249 75.0507 67.7527 75.0585 68.4799C75.0742 69.6388 74.0506 70.489 73.8495 71.6191C73.8041 72.0937 73.7876 72.5707 73.7999 73.0474C73.7111 74.596 72.7005 75.8647 71.6456 76.8378C71.233 77.2171 70.7786 77.6226 70.6585 78.2086C70.5776 78.6062 70.6585 79.03 70.6063 79.4328C70.4522 80.4374 69.4521 80.9475 68.5669 81.0809C67.5326 81.2317 66.4769 81.1063 65.5065 80.7173C66.7442 80.1287 67.5067 78.4623 67.2195 76.966C66.8252 74.8942 64.7466 73.4083 64.9242 71.2973C65.0222 70.6505 65.2158 70.0219 65.4986 69.4321C65.9519 68.2938 66.2811 67.1098 66.4805 65.9006C66.6371 64.9641 66.7129 63.9727 66.4204 63.0833C66.1593 62.2697 65.6135 61.6262 65.1513 60.9408C64.5242 60.0075 64.0294 58.9916 63.6812 57.922C63.5539 57.6062 63.5055 57.2641 63.5402 56.9254C63.6418 56.5193 63.8651 56.1542 64.1799 55.879C65.3158 54.6835 66.5301 53.4383 68.0525 53.0982C68.7786 52.9753 69.5176 52.9462 70.2512 53.0119C71.5268 53.0534 72.8038 52.9992 74.0715 52.8497C75.116 52.7268 76.8812 52.7451 77.7664 52.0649C78.5916 51.4293 79.0564 50.6366 80.0722 50.2338C81.1014 49.8544 82.2075 49.7323 83.2945 49.878V49.878Z" fill="black"/>
<path opacity="0.1" d="M87.3315 125.013C87.3315 125.013 91.5357 133.311 90.2614 135.861Z" fill="black"/>
<path opacity="0.1" d="M94.954 147.204L88.7966 139.382C88.7966 139.382 88.7966 139.429 88.7966 139.518C88.7966 139.518 88.4415 136.986 89.614 137.836C92.1835 139.699 96.2936 142.751 96.3824 143.277C96.4712 143.803 95.5494 145.904 94.954 147.204Z" fill="black"/>
<g opacity="0.1">
<path d="M86.2478 73.3796C86.2478 73.3796 86.77 75.5351 85.0884 76.6129C87.6735 76.1708 87.7884 74.1539 87.6997 73.2776C87.2197 73.3546 86.7338 73.3888 86.2478 73.3796V73.3796Z" fill="black"/>
<path d="M37.8295 103.758C37.8295 103.758 61.2735 90.7389 64.7256 84.1022C67.1933 79.3386 73.1418 76.482 76.3014 75.2473C73.9983 76.0321 66.2376 78.9907 63.3234 84.6124C59.8843 91.249 36.4272 104.271 36.4272 104.271L37.8295 103.758Z" fill="black"/>
<path d="M90.8126 72.3646C94.8026 71.122 98.6151 68.0195 98.6151 68.0195L86.3734 59.3346L86.6529 58.147L85.4804 57.6761L84.9712 59.8474L97.205 68.527C95.2444 70.0713 93.0965 71.3607 90.8126 72.3646V72.3646Z" fill="black"/>
<path d="M90.8828 101.781C92.4454 101.247 94.0488 100.841 95.6771 100.567L95.698 100.321C94.0577 100.682 92.4478 101.17 90.8828 101.781H90.8828Z" fill="black"/>
<path d="M76.0563 115.153H75.944C75.8579 115.197 75.7536 115.183 75.6829 115.117C75.7677 115.141 75.8556 115.154 75.944 115.153C76.3618 114.91 76.9885 113.003 75.6829 101.969C74.278 90.1974 68.7499 91.1156 65.7261 92.4706C68.8178 91.6178 73.0716 92.3555 74.2806 102.479C75.5993 113.513 74.97 115.42 74.5417 115.663C75.0851 115.643 75.611 115.466 76.0563 115.153V115.153Z" fill="black"/>
<path d="M74.5419 115.666C74.4534 115.667 74.3653 115.654 74.2803 115.63C74.3511 115.696 74.4556 115.71 74.5419 115.666V115.666Z" fill="black"/>
</g>
<path d="M83.2946 49.6217C85.3105 49.8519 87.2246 50.7177 89.2092 51.1912C89.7052 51.3457 90.2332 51.3656 90.7394 51.2488C91.5097 51.0107 92.1364 50.2024 92.9354 50.2259C93.4264 50.2416 93.8624 50.5765 94.2672 50.8982C94.9163 51.3959 95.5273 51.9415 96.0951 52.5306C97.4634 54.019 98.3121 56.0229 99.5602 57.6421C100.808 59.2614 102.777 60.5196 104.55 59.7767C103.344 64.4854 99.3931 68.0718 95.1185 68.3648C93.4133 68.4825 91.6664 68.1268 90.016 68.6264C89.6051 68.7952 89.1711 68.9011 88.7287 68.9403C87.7782 68.9403 87.0131 68.0666 86.4203 67.2164C85.0311 65.2179 83.9318 62.9498 82.3676 61.1265C81.8454 60.5223 81.2421 59.9494 80.511 59.8395C79.7798 59.7296 79.1087 60.0802 78.4585 60.4176C77.3853 60.9748 76.2886 61.5503 75.4556 62.5104C74.6226 63.4704 74.0977 64.8883 74.4424 66.1727C74.6278 66.8685 75.0508 67.4963 75.0586 68.2236C75.0743 69.385 74.0507 70.2326 73.8496 71.3627C73.8042 71.8373 73.7877 72.3143 73.8 72.791C73.7112 74.3396 72.7007 75.6057 71.6457 76.5815C71.2331 76.9582 70.7788 77.3663 70.6586 77.9496C70.5777 78.3498 70.6586 78.771 70.6064 79.1765C70.4524 80.181 69.4522 80.6911 68.567 80.8219C67.5327 80.9753 66.4764 80.8498 65.5066 80.4583C66.7443 79.8723 67.5068 78.2034 67.2196 76.7097C66.8253 74.6378 64.7467 73.1494 64.9243 71.0409C65.022 70.394 65.2156 69.7654 65.4988 69.1758C65.9517 68.0364 66.2809 66.8516 66.4806 65.6416C66.6373 64.7078 66.713 63.7163 66.4205 62.8243C66.1594 62.0133 65.6137 61.3672 65.1515 60.6818C64.5248 59.7492 64.0301 58.7342 63.6813 57.6657C63.5548 57.3488 63.5064 57.006 63.5403 56.6664C63.645 56.2653 63.868 55.9052 64.1801 55.6331C65.316 54.4376 66.5302 53.195 68.0526 52.8523C68.779 52.7315 69.5178 52.7034 70.2513 52.7686C71.527 52.8088 72.8039 52.7545 74.0716 52.6064C75.1161 52.4835 76.8813 52.4992 77.7665 51.8217C78.5917 51.1886 79.0565 50.3934 80.0723 49.9905C81.1009 49.6086 82.2065 49.482 83.2946 49.6217V49.6217Z" fill="#3B4A6B"/>
<path d="M128.133 130.514L146.53 112.009C146.831 111.708 147 111.298 147 110.871C147 110.444 146.831 110.034 146.53 109.732L144.267 107.472C143.967 107.17 143.561 107 143.136 107C142.712 107 142.305 107.17 142.006 107.472L127.001 122.565L119.994 115.501C119.368 114.875 118.357 114.875 117.731 115.501L115.467 117.792C114.844 118.421 114.844 119.439 115.467 120.068L125.869 130.528C126.169 130.83 126.576 131 127.001 131C127.425 131 127.833 130.83 128.133 130.528V130.514Z" fill="white"/>
<defs>
<linearGradient id="paint0_linear" x1="74.1396" y1="116.66" x2="74.1396" y2="116.592" gradientUnits="userSpaceOnUse">
<stop stop-color="#808080" stop-opacity="0.25"/>
<stop offset="0.54" stop-color="#808080" stop-opacity="0.12"/>
<stop offset="1" stop-color="#808080" stop-opacity="0.1"/>
</linearGradient>
<linearGradient id="paint1_linear" x1="109.019" y1="152.676" x2="109.019" y2="48.9311" gradientUnits="userSpaceOnUse">
<stop stop-color="#808080" stop-opacity="0.25"/>
<stop offset="0.54" stop-color="#808080" stop-opacity="0.12"/>
<stop offset="1" stop-color="#808080" stop-opacity="0.1"/>
</linearGradient>
</defs>
</svg>
